<svg height="12.061" viewBox="0 0 222.191 12.061" width="222.191" xmlns="http://www.w3.org/2000/svg"><path d="M.087 10.42l.6-.654a.327.327 0 01.536.034 1.89 1.89 0 001.374.721c.821 0 1.692-.637 1.692-2.111V.488A.317.317 0 014.607.17h1.105a.318.318 0 01.318.318v7.907a3.347 3.347 0 01-3.434 3.668A3.211 3.211 0 01.05 10.84a.353.353 0 01.037-.42zm10.554 1.039L15.784.184A.4.4 0 0116.069 0h.168a.393.393 0 01.285.184l5.109 11.275a.3.3 0 01-.284.435h-1.054a.389.389 0 01-.385-.251l-1.039-2.3h-5.476c-.334.77-.686 1.525-1.021 2.3a.422.422 0 01-.385.251h-1.061a.3.3 0 01-.285-.435zm7.59-3.551l-2.061-4.59h-.084l-2.044 4.59zM31.783 0a5.818 5.818 0 014.055 1.558.311.311 0 01.017.469l-.737.754c-.118.15-.268.15-.419 0a4.541 4.541 0 00-2.9-1.123 4.349 4.349 0 00.018 8.694 4.487 4.487 0 002.881-1.105.307.307 0 01.4-.017l.77.754a.319.319 0 01-.016.452 5.752 5.752 0 01-4.072 1.624 6.031 6.031 0 110-12.061zm14.926 0a6.031 6.031 0 11-6.014 6.047A6.02 6.02 0 0146.709 0zm0 10.386a4.356 4.356 0 10-4.339-4.339 4.354 4.354 0 004.339 4.339zM58.487.488a.317.317 0 01.318-.318h3.752a3.043 3.043 0 011.742 5.762 3.033 3.033 0 012.095 2.731 3.349 3.349 0 01-3.652 3.233h-3.937a.318.318 0 01-.318-.318zm4.238 9.867a1.785 1.785 0 001.81-1.826 1.924 1.924 0 00-2.061-1.759h-2.3v3.585zm-.268-5.092a1.679 1.679 0 001.725-1.793 1.617 1.617 0 00-1.725-1.725h-2.262v3.518zm9.046 4.938c.151-.217.285-.468.436-.686a.379.379 0 01.57-.134 4.914 4.914 0 002.68 1.156 1.688 1.688 0 001.893-1.558c0-1.005-.872-1.641-2.53-2.328-1.709-.721-3.049-1.608-3.049-3.551 0-1.307 1.006-3.1 3.669-3.1a5.684 5.684 0 013.1.988.4.4 0 01.1.57c-.135.2-.284.435-.419.637a.4.4 0 01-.586.167 5.158 5.158 0 00-2.262-.837c-1.407 0-1.893.888-1.893 1.507 0 .955.737 1.542 2.128 2.111 1.943.787 3.6 1.709 3.6 3.752 0 1.742-1.558 3.166-3.736 3.166a5.424 5.424 0 01-3.6-1.323.353.353 0 01-.101-.537zm22.733-3.433h-2.58a.33.33 0 01-.318-.319v-.703a.33.33 0 01.318-.319h2.58v-2.6a.315.315 0 01.319-.3h.7a.315.315 0 01.319.3v2.6h2.577a.315.315 0 01.3.319v.7a.315.315 0 01-.3.319h-2.579v2.563a.315.315 0 01-.319.3h-.7a.315.315 0 01-.319-.3zm17.557-6.28a.329.329 0 01.318-.318h1.105a.329.329 0 01.318.318v11.09a.33.33 0 01-.318.318h-1.105a.33.33 0 01-.318-.318zm8.344-.187a.315.315 0 01.318-.3h.419l7.271 8.409h.016V.487a.318.318 0 01.318-.318h1.072a.328.328 0 01.318.318v11.274a.314.314 0 01-.318.3h-.435l-7.271-8.644h-.021v8.158a.318.318 0 01-.318.318h-1.055a.33.33 0 01-.318-.318zm17.941 1.442h-2.731a.318.318 0 01-.318-.319V.488a.317.317 0 01.318-.318h7.2a.318.318 0 01.318.318v.938a.319.319 0 01-.318.319h-2.725v9.833a.33.33 0 01-.318.318h-1.105a.33.33 0 01-.318-.318zm9.951-1.255a.318.318 0 01.318-.318h6.7a.317.317 0 01.318.318v.938a.318.318 0 01-.318.319h-5.292v3.417h4.472a.328.328 0 01.318.318v.938a.317.317 0 01-.318.318h-4.472v3.6h5.292a.318.318 0 01.318.319v.921a.318.318 0 01-.318.318h-6.7a.318.318 0 01-.318-.318zm13.214 0a.318.318 0 01.319-.318h4.556a3.614 3.614 0 013.653 3.585 3.718 3.718 0 01-2.48 3.4l2.3 4.255a.317.317 0 01-.284.486h-1.308a.309.309 0 01-.268-.151l-2.228-4.439h-2.529v4.272a.33.33 0 01-.318.318h-1.089a.319.319 0 01-.319-.318zm4.742 5.377a2.081 2.081 0 002.043-2.077 2.053 2.053 0 00-2.043-1.994h-2.983v4.071zm9.75-5.377a.329.329 0 01.318-.318h1.106a.329.329 0 01.319.318v11.09a.33.33 0 01-.319.318h-1.104a.33.33 0 01-.318-.318zM189.239 0a6.031 6.031 0 11-6.013 6.047A6.02 6.02 0 01189.239 0zm0 10.386a4.356 4.356 0 10-4.338-4.339 4.355 4.355 0 004.338 4.339zM201.017.488a.318.318 0 01.318-.318h4.557a3.614 3.614 0 013.652 3.585 3.718 3.718 0 01-2.48 3.4l2.3 4.255a.317.317 0 01-.285.486h-1.307a.308.308 0 01-.268-.151l-2.228-4.439h-2.53v4.272a.33.33 0 01-.318.318h-1.089a.319.319 0 01-.318-.318zm4.741 5.377a2.081 2.081 0 002.043-2.077 2.053 2.053 0 00-2.043-1.994h-2.982v4.071zm8.996 4.336c.151-.217.285-.468.436-.686a.379.379 0 01.57-.134 4.917 4.917 0 002.68 1.156 1.687 1.687 0 001.893-1.558c0-1.005-.871-1.641-2.53-2.328-1.709-.721-3.049-1.608-3.049-3.551 0-1.307 1.006-3.1 3.669-3.1a5.676 5.676 0 013.1.988.4.4 0 01.1.57c-.133.2-.284.435-.418.637a.4.4 0 01-.587.167 5.154 5.154 0 00-2.261-.837c-1.407 0-1.893.888-1.893 1.507 0 .955.737 1.542 2.127 2.111 1.944.787 3.6 1.709 3.6 3.752 0 1.742-1.557 3.166-3.735 3.166a5.421 5.421 0 01-3.6-1.323.353.353 0 01-.102-.537z" fill="#fff"/></svg>