<svg height="59.84" viewBox="0 0 42.999 59.84" width="42.999" xmlns="http://www.w3.org/2000/svg"><path d="M27.493 59.84A1.84 1.84 0 0125.654 58V1.84A1.84 1.84 0 0127.493 0h13.666a1.84 1.84 0 011.84 1.84v42.494A15.523 15.523 0 0127.493 59.84zm1.84-56.16v52.338a11.847 11.847 0 009.987-11.684V3.679zM15.629 59.84A15.647 15.647 0 010 44.211v-8.54a1.84 1.84 0 011.84-1.84h13.789a1.84 1.84 0 011.84 1.84v22.33a1.84 1.84 0 01-1.84 1.839zM3.679 37.509v6.7a11.969 11.969 0 0010.11 11.809v-18.51zm.823-17.314H1.855a1.84 1.84 0 01-1.839-1.84V1.84A1.84 1.84 0 011.855 0H18.37a1.84 1.84 0 01.594 3.581 21.515 21.515 0 00-8.767 6.594c-3.581 4.564-3.856 8.246-3.858 8.283a1.854 1.854 0 01-1.837 1.737zM3.695 3.679v10.458a24.305 24.305 0 013.608-6.233 24.955 24.955 0 014.238-4.225z" fill="#fff"/></svg>