<svg version="1.1" id="Layer_1" xmlns="http://www.w3.org/2000/svg" x="0" y="0" viewBox="0 0 318.3 39.8" xml:space="preserve"><style type="text/css">.st0{fill:#fff}</style><g id="Group_26" transform="translate(-51.177 -196.031)"><g id="Group_10" transform="translate(51.177 196.031)"><g id="Group_9"><path id="Path_23" class="st0" d="M.1 15.9L1 15c.2-.2.5-.2.7-.1l.1.1c.5.6 1.2 1 2 1 1.2 0 2.4-.9 2.4-3V1.7c0-.2.2-.5.4-.5h1.6c.2 0 .5.2.5.4V13c0 3.3-2.1 5.3-4.9 5.3-1.4 0-2.8-.6-3.7-1.8-.1-.2-.1-.4 0-.6z"/><path id="Path_24" class="st0" d="M15.2 17.4l7.4-16.1c.1-.2.3-.3.4-.3h.2c.2 0 .3.1.4.3L31 17.4c.1.2 0 .5-.2.6-.1 0-.1.1-.2 0h-1.5c-.2 0-.5-.1-.5-.4L27 14.4h-7.9l-1.5 3.3c-.1.2-.3.4-.5.4h-1.5c-.2 0-.4-.1-.5-.4.1-.1.1-.2.1-.3zm10.9-5.1l-3-6.6H23l-2.9 6.6h6z"/><path id="Path_25" class="st0" d="M45.5 1c2.2 0 4.2.8 5.8 2.2.2.2.2.4.1.6L50.3 5c-.2.2-.4.2-.6 0-1.2-1-2.6-1.6-4.2-1.6-3.4.1-6.1 3-6 6.4.1 3.3 2.8 5.9 6 6 1.5 0 3-.6 4.1-1.6.2-.1.4-.2.6 0l1.1 1.1c.2.2.2.5 0 .6-1.6 1.5-3.7 2.4-5.8 2.3-4.8 0-8.7-3.8-8.7-8.6C36.8 5 40.6 1 45.3 1h.2z"/><path id="Path_26" class="st0" d="M66.9 1c4.8 0 8.7 3.8 8.7 8.6s-3.8 8.7-8.6 8.7-8.7-3.8-8.7-8.6S62.1 1 66.9 1zm0 14.9c3.4 0 6.2-2.8 6.3-6.2S70.4 3.4 67 3.4c-3.5 0-6.2 2.8-6.3 6.2v.1c0 3.4 2.8 6.2 6.2 6.2z"/><path id="Path_27" class="st0" d="M83.8 1.7c0-.2.2-.5.4-.5h5.4c2.9 0 5 1.9 5 4.4-.1 1.6-1.1 3.1-2.5 3.8 1.7.6 2.9 2.1 3 3.9 0 2.7-2.2 4.6-5.2 4.6h-5.6c-.2 0-.5-.2-.5-.5V1.7zm6.1 14.1c1.4 0 2.6-1.1 2.6-2.5v-.1c-.1-1.5-1.4-2.6-2.9-2.5h-3.3v5.1h3.6zm-.4-7.3c1.3 0 2.4-1 2.5-2.3V6c.1-1.3-.9-2.4-2.2-2.5h-3.5v5h3.2z"/><path id="Path_28" class="st0" d="M102.4 15.6c.2-.3.4-.7.6-1 .1-.3.5-.4.7-.2 0 0 .1 0 .1.1 1.1.9 2.4 1.5 3.8 1.7 1.7 0 2.7-1 2.7-2.2 0-1.4-1.2-2.4-3.6-3.3-2.4-1-4.4-2.3-4.4-5.1 0-1.9 1.4-4.4 5.3-4.4 1.6 0 3.1.5 4.4 1.4.3.2.3.5.2.8l-.6.9c-.1.3-.5.4-.8.3h-.1c-1-.7-2.1-1.1-3.2-1.2-2 0-2.7 1.3-2.7 2.2 0 1.4 1.1 2.2 3.1 3 2.8 1.1 5.2 2.4 5.2 5.4 0 2.5-2.2 4.5-5.3 4.5-1.9 0-3.7-.7-5.2-1.9-.2-.4-.3-.7-.2-1 0 .1 0 0 0 0z"/><path id="Path_29" class="st0" d="M135 10.7h-3.7c-.2 0-.4-.2-.5-.5v-1c0-.2.2-.4.5-.5h3.7V5.1c0-.2.2-.4.5-.4h1c.2 0 .4.2.5.4v3.7h3.7c.2 0 .4.2.4.5v1c0 .2-.2.4-.4.5H137v3.7c0 .2-.2.4-.5.4h-1c-.2 0-.4-.2-.5-.4v-3.8z"/><path id="Path_30" class="st0" d="M160.2 1.7c0-.2.2-.5.5-.5h1.6c.2 0 .4.2.5.5v15.9c0 .2-.2.5-.5.5h-1.6c-.2 0-.4-.2-.5-.5V1.7z"/><path id="Path_31" class="st0" d="M172.1 1.4c0-.2.2-.4.5-.4h.6l10.4 12.1V1.7c0-.2.2-.5.5-.5h1.5c.2 0 .4.2.5.5v16.1c0 .2-.2.4-.5.4h-.6L174.6 5.9v11.7c0 .2-.2.5-.5.5h-1.5c-.2 0-.4-.2-.5-.5V1.4z"/><path id="Path_32" class="st0" d="M197.8 3.5h-3.9c-.2 0-.5-.2-.5-.5V1.7c0-.2.2-.5.4-.5h10.3c.2 0 .5.2.5.5V3c0 .2-.2.5-.5.5h-3.9v14.1c0 .2-.2.5-.5.5h-1.6c-.2 0-.4-.2-.5-.5l.2-14.1z"/><path id="Path_33" class="st0" d="M212.1 1.7c0-.2.2-.5.4-.5h9.6c.2 0 .5.2.5.4V3c0 .2-.2.5-.4.5h-7.6v4.9h6.4c.2 0 .4.2.5.5v1.3c0 .2-.2.5-.4.5h-6.4v5.2h7.6c.2 0 .5.2.5.5v1.3c0 .2-.2.5-.4.5h-9.6c-.2 0-.5-.2-.5-.5l-.2-16z"/><path id="Path_34" class="st0" d="M231 1.7c0-.2.2-.5.5-.5h6.5c2.9 0 5.2 2.3 5.2 5.1-.1 2.2-1.5 4.1-3.6 4.9l3.3 6.1c.1.2.1.5-.1.6-.1 0-.2.1-.3.1h-1.9c-.2 0-.3-.1-.4-.2l-3.2-6.4h-3.6v6.1c0 .2-.2.5-.5.5h-1.6c-.2 0-.5-.2-.5-.5l.2-15.8zm6.8 7.7c1.6 0 2.9-1.4 2.9-3-.1-1.6-1.3-2.8-2.9-2.9h-4.3v5.8h4.3z"/><path id="Path_35" class="st0" d="M251.8 1.7c0-.2.2-.5.5-.5h1.6c.2 0 .4.2.5.5v15.9c0 .2-.2.5-.5.5h-1.6c-.2 0-.4-.2-.5-.5V1.7z"/><path id="Path_36" class="st0" d="M271.1 1c4.8 0 8.6 3.8 8.7 8.6s-3.8 8.6-8.6 8.7-8.6-3.8-8.7-8.6c0-4.8 3.8-8.7 8.6-8.7zm0 14.9c3.5 0 6.2-2.8 6.3-6.2 0-3.4-2.8-6.2-6.2-6.3-3.5 0-6.2 2.8-6.3 6.2v.1c0 3.4 2.8 6.2 6.2 6.2z"/><path id="Path_37" class="st0" d="M288 1.7c0-.2.2-.5.5-.5h6.5c2.9 0 5.2 2.3 5.2 5.1-.1 2.2-1.5 4.1-3.5 4.9l3.3 6.1c.1.2.1.5-.1.6-.1 0-.2.1-.3.1h-1.9c-.2 0-.3-.1-.4-.2l-3.2-6.4h-3.6v6.1c0 .2-.2.5-.5.5h-1.6c-.2 0-.5-.2-.5-.5l.1-15.8zm6.8 7.7c1.6 0 2.9-1.4 2.9-3s-1.3-2.8-2.9-2.9h-4.3v5.8h4.3z"/><path id="Path_38" class="st0" d="M307.7 15.6c.2-.3.4-.7.6-1 .1-.3.5-.4.7-.2 0 0 .1 0 .1.1 1.1.9 2.4 1.5 3.8 1.7 1.7 0 2.7-1 2.7-2.2 0-1.4-1.2-2.4-3.6-3.3-2.5-1-4.4-2.3-4.4-5.1 0-1.9 1.4-4.4 5.3-4.4 1.6 0 3.1.5 4.4 1.4.3.2.3.5.2.8l-.6.9c-.1.3-.5.4-.8.3 0 0-.1 0-.1-.1-1-.6-2.1-1.1-3.2-1.2-2 0-2.7 1.3-2.7 2.2 0 1.4 1 2.2 3 3 2.8 1.1 5.2 2.4 5.2 5.4 0 2.5-2.2 4.5-5.4 4.5-1.9 0-3.7-.7-5.2-1.9-.1-.2-.2-.5 0-.9-.1.1-.1 0 0 0z"/></g></g><g id="Group_11" transform="translate(149.3 226.57)"><path id="Path_39" class="st0" d="M0 1.3c0-.1.1-.2.2-.2h.7c.1 0 .2.1.2.2v7.4c0 .1-.1.2-.2.2H.2c-.1 0-.2-.1-.2-.2V1.3z"/><path id="Path_40" class="st0" d="M5.6 1.2c0-.1.1-.2.2-.2h.3l4.8 5.6V1.3c0-.1.1-.2.2-.2h.7c.1 0 .2.1.2.2v7.5c0 .1-.1.2-.2.2h-.3L6.7 3.3v5.4c0 .1-.1.2-.2.2h-.7c-.1 0-.2-.1-.2-.2V1.2z"/><path id="Path_41" class="st0" d="M17.5 2.2h-1.8c-.1 0-.2-.1-.2-.2v-.7c0-.1.1-.2.2-.2h4.8c.1 0 .2.1.2.2V2c0 .1-.1.2-.2.2h-1.8v6.5c0 .1-.1.2-.2.2h-.7c-.1 0-.2-.1-.2-.2l-.1-6.5z"/><path id="Path_42" class="st0" d="M24.1 1.3c0-.1.1-.2.2-.2h4.5c.1 0 .2.1.2.2v.6c0 .1-.1.2-.2.2h-3.5v2.3h3c.1 0 .2.1.2.2v.6c0 .1-.1.2-.2.2h-3v2.4h3.5c.1.1.2.2.2.3v.6c0 .1-.1.2-.2.2h-4.5c-.1 0-.2-.1-.2-.2V1.3z"/><path id="Path_43" class="st0" d="M32.9 1.3c0-.1.1-.2.2-.2h3c1.3 0 2.4 1 2.4 2.4 0 1-.7 1.9-1.7 2.3l1.5 2.8c.1.1 0 .2-.1.3h-1c-.1 0-.1 0-.2-.1l-1.5-3h-1.7v2.9c0 .1-.1.2-.2.2h-.7c-.1 0-.2-.1-.2-.2l.2-7.4zm3.2 3.6c.8 0 1.4-.6 1.4-1.4 0-.7-.6-1.3-1.4-1.3h-2v2.7h2z"/><path id="Path_44" class="st0" d="M42.6 1.3c0-.1.1-.2.2-.2h.7c.1 0 .2.1.2.2v7.4c0 .1-.1.2-.2.2h-.7c-.1 0-.2-.1-.2-.2V1.3z"/><path id="Path_45" class="st0" d="M51.5 1c2.2 0 4 1.8 4 4s-1.8 4-4 4-4-1.8-4-4 1.8-4 4-4zm0 6.9c1.6 0 2.9-1.3 2.9-2.9 0-1.6-1.3-2.9-2.9-2.9-1.6 0-2.9 1.3-2.9 2.9.1 1.6 1.4 2.9 2.9 2.9z"/><path id="Path_46" class="st0" d="M59.4 1.3c0-.1.1-.2.2-.2h3c1.3 0 2.4 1 2.4 2.4 0 1-.7 1.9-1.7 2.3l1.5 2.8c.1.1 0 .2-.1.3h-1c-.1 0-.1 0-.2-.1l-1.5-3h-1.7v2.8c0 .1-.1.2-.2.2h-.7c-.1 0-.2-.1-.2-.2l.2-7.3zm3.1 3.6c.8 0 1.4-.6 1.4-1.4 0-.7-.6-1.3-1.4-1.3h-2v2.7h2z"/><path id="Path_47" class="st0" d="M73.7 1.3c0-.1.1-.2.2-.2h2.6c2.2 0 3.9 1.7 3.9 3.9s-1.8 3.9-3.9 3.9h-2.6c-.1 0-.2-.1-.2-.2V1.3zm2.6 6.6c1.6 0 2.8-1.3 2.8-2.8s-1.3-2.8-2.8-2.8h-1.5V8l1.5-.1z"/><path id="Path_48" class="st0" d="M84.2 1.3c0-.1.1-.2.2-.2h4.5c.1 0 .2.1.2.2v.6c0 .1-.1.2-.2.2h-3.5v2.3h3c.1 0 .2.1.2.2v.6c0 .1-.1.2-.2.2h-3v2.4h3.5c.1 0 .2.1.2.2v.6c0 .1-.1.2-.2.2h-4.5c-.1 0-.2-.1-.2-.2V1.3z"/><path id="Path_49" class="st0" d="M92.5 7.8c.1-.2.2-.3.3-.5.1-.1.2-.2.3-.1.6.5 1.2.8 1.9.8.6.1 1.2-.4 1.2-1v-.1c0-.7-.6-1.1-1.7-1.5-1.1-.5-2-1.1-2-2.4.1-1.1 1.1-2 2.3-2h.2c.7 0 1.4.2 2.1.7.1.1.2.2.1.4-.1.1-.2.3-.3.4-.1.1-.2.2-.3.1-.4-.3-1-.5-1.5-.6-.9 0-1.3.6-1.3 1 0 .6.5 1 1.4 1.4 1.3.5 2.4 1.1 2.4 2.5-.1 1.2-1.2 2.2-2.4 2.1h-.1c-.9 0-1.7-.3-2.4-.9-.2 0-.3-.1-.2-.3z"/><path id="Path_50" class="st0" d="M101.2 1.3c0-.1.1-.2.2-.2h.7c.1 0 .2.1.2.2v7.4c0 .1-.1.2-.2.2h-.7c-.1 0-.2-.1-.2-.2V1.3z"/><path id="Path_51" class="st0" d="M110.2 1c1 0 2 .4 2.7 1 .1.1.1.2 0 .3l-.5.5c-.1.1-.2.1-.3 0-.5-.5-1.2-.7-1.9-.8-1.6.1-2.8 1.4-2.8 3 .1 1.5 1.3 2.7 2.8 2.8.6 0 1.2-.1 1.7-.4V6.3h-1.1c-.1 0-.2-.1-.2-.2v-.7c0-.1.1-.2.2-.2h2c.1 0 .2.1.2.2v2.7c0 .1 0 .1-.1.2-.8.5-1.8.7-2.8.7-2.2 0-4-1.9-3.9-4.1.1-2.1 1.9-3.9 4-3.9z"/><path id="Path_52" class="st0" d="M117.1 1.2c0-.1.1-.2.2-.2h.3l4.8 5.6V1.3c0-.1.1-.2.2-.2h.7c.1 0 .2.1.2.2v7.5c0 .1-.1.2-.2.2h-.3l-4.8-5.7v5.4c0 .1-.1.2-.2.2h-.7c-.1 0-.2-.1-.2-.2V1.2z"/></g></g></svg>