<?xml version="1.0" encoding="UTF-8"?> <!-- Generator: Adobe Illustrator 24.2.1, SVG Export Plug-In . SVG Version: 6.00 Build 0) --> <svg xmlns="http://www.w3.org/2000/svg" xmlns:xlink="http://www.w3.org/1999/xlink" version="1.1" id="Layer_1" x="0px" y="0px" viewBox="0 0 113 113" style="enable-background:new 0 0 113 113;" xml:space="preserve"> <style type="text/css"> .st0{fill:#FFFFFF;} </style> <g id="Group_118" transform="translate(1898.104 185.873)"> <g id="Group_117"> <g id="Group_108"> <path id="Path_182" class="st0" d="M-1841.29-74.18v0.51c30.67,0,55.54-24.86,55.54-55.54s-24.86-55.54-55.54-55.54 c-30.67,0-55.54,24.86-55.54,55.54c0,0,0,0,0,0c0.04,30.66,24.88,55.5,55.54,55.54v-1.03c-30.14,0.03-54.6-24.37-54.63-54.51 c-0.03-30.14,24.37-54.6,54.51-54.63c30.14-0.03,54.6,24.37,54.63,54.51c0.02,14.49-5.73,28.4-15.98,38.65 c-10.2,10.24-24.07,15.99-38.53,15.98V-74.18z"></path> <path id="Path_183" class="st0" d="M-1841.29-76.34v0.51c29.48,0,53.38-23.9,53.38-53.38c0-29.48-23.9-53.38-53.38-53.38 c-29.48,0-53.38,23.9-53.38,53.38c0,0,0,0,0,0c0.03,29.47,23.91,53.34,53.38,53.38v-1.03c-28.95,0.03-52.44-23.4-52.47-52.35 c-0.03-28.95,23.4-52.44,52.35-52.47s52.44,23.4,52.47,52.35c0.02,13.92-5.51,27.28-15.35,37.12c-9.8,9.84-23.12,15.36-37,15.35 V-76.34z"></path> </g> <g id="Group_116" transform="translate(27.315 11.946)"> <g id="Group_109" transform="translate(7.976 72.503)"> <path id="Path_184" class="st0" d="M-1895.09-183.04c0.21,0,0.42,0.04,0.61,0.12c0.38,0.16,0.68,0.46,0.84,0.84 c0.17,0.39,0.17,0.83,0,1.22c-0.08,0.19-0.19,0.36-0.34,0.5c-0.14,0.14-0.31,0.26-0.5,0.34c-0.19,0.08-0.4,0.13-0.61,0.12 c-0.24,0-0.47-0.04-0.69-0.14c-0.19-0.09-0.36-0.21-0.49-0.38c-0.13-0.16-0.24-0.35-0.3-0.55c-0.07-0.21-0.1-0.42-0.1-0.64 c0-0.43,0.1-0.86,0.3-1.25c0.2-0.39,0.49-0.73,0.85-0.99c0.4-0.29,0.85-0.52,1.33-0.65c0.57-0.16,1.15-0.24,1.74-0.24 c1.14,0,2.25,0.39,3.14,1.11c0.39,0.32,0.72,0.72,0.97,1.17c0.23,0.43,0.36,0.91,0.36,1.39c0.02,0.56-0.1,1.11-0.33,1.62 c-0.22,0.44-0.53,0.84-0.91,1.15c-0.42,0.34-0.88,0.63-1.38,0.85c-0.53,0.24-1.11,0.48-1.73,0.71 c-0.31,0.12-0.64,0.22-0.97,0.31s-0.65,0.19-0.96,0.31c-0.31,0.11-0.61,0.26-0.89,0.43c-0.29,0.18-0.54,0.41-0.75,0.67 c-0.24,0.32-0.42,0.68-0.55,1.05c-0.16,0.5-0.25,1.03-0.27,1.56c0.12-0.42,0.28-0.82,0.5-1.19c0.17-0.3,0.39-0.56,0.65-0.79 c0.23-0.19,0.49-0.34,0.78-0.43c0.29-0.09,0.59-0.13,0.89-0.13c0.29,0,0.58,0.03,0.86,0.11c0.25,0.07,0.49,0.15,0.73,0.26 c0.22,0.1,0.44,0.21,0.64,0.34c0.2,0.12,0.41,0.24,0.62,0.34c0.21,0.1,0.42,0.19,0.64,0.26c0.24,0.07,0.48,0.11,0.73,0.11 c0.22,0,0.44-0.03,0.66-0.09c0.22-0.06,0.42-0.16,0.6-0.3c0.19-0.15,0.33-0.34,0.43-0.56c0.12-0.27,0.18-0.57,0.17-0.87v-0.07 h0.09v0.22c0,0.5-0.07,1-0.2,1.48c-0.12,0.45-0.32,0.88-0.58,1.26c-0.25,0.36-0.57,0.66-0.94,0.88 c-0.38,0.22-0.82,0.34-1.26,0.33c-0.36,0.01-0.73-0.04-1.08-0.13c-0.28-0.08-0.56-0.19-0.81-0.34 c-0.23-0.13-0.44-0.28-0.65-0.44c-0.19-0.16-0.39-0.31-0.58-0.44c-0.19-0.13-0.39-0.25-0.6-0.34c-0.23-0.09-0.48-0.14-0.74-0.13 c-0.42-0.03-0.84,0.13-1.13,0.43c-0.27,0.32-0.42,0.72-0.42,1.14h-0.09v-0.28c-0.01-0.51,0.03-1.02,0.12-1.52 c0.07-0.39,0.18-0.76,0.34-1.12c0.14-0.31,0.32-0.59,0.54-0.84c0.22-0.25,0.46-0.48,0.71-0.68c0.26-0.22,0.55-0.43,0.87-0.64 c0.32-0.21,0.65-0.45,1-0.72c0.43-0.31,0.81-0.66,1.16-1.06c0.26-0.31,0.48-0.65,0.65-1.01c0.15-0.32,0.24-0.66,0.28-1.01 c0.04-0.35,0.06-0.71,0.06-1.06c0.04-0.77-0.14-1.54-0.52-2.21c-0.36-0.53-0.97-0.83-1.61-0.79c-0.37,0-0.74,0.05-1.1,0.16 c-0.35,0.1-0.69,0.26-0.99,0.46c-0.3,0.2-0.56,0.45-0.77,0.73c-0.21,0.29-0.36,0.63-0.42,0.99c0.12-0.27,0.32-0.51,0.57-0.67 C-1895.68-182.96-1895.39-183.04-1895.09-183.04z"></path> <path id="Path_185" class="st0" d="M-1874.55-177.99c0,0.6-0.08,1.2-0.24,1.78c-0.15,0.56-0.37,1.1-0.65,1.61 c-0.27,0.49-0.59,0.95-0.97,1.36c-0.35,0.4-0.76,0.75-1.19,1.05c-0.41,0.28-0.85,0.51-1.32,0.68c-0.87,0.33-1.83,0.33-2.7,0 c-0.47-0.17-0.91-0.4-1.32-0.68c-0.44-0.3-0.84-0.66-1.19-1.05c-0.37-0.42-0.7-0.87-0.97-1.36c-0.28-0.51-0.49-1.05-0.65-1.61 c-0.32-1.16-0.32-2.39,0-3.56c0.15-0.56,0.37-1.1,0.65-1.61c0.27-0.49,0.59-0.95,0.97-1.36c0.36-0.4,0.76-0.75,1.19-1.05 c0.41-0.28,0.85-0.51,1.32-0.68c0.87-0.33,1.83-0.33,2.71,0c0.47,0.17,0.91,0.4,1.32,0.68c0.44,0.3,0.84,0.66,1.19,1.05 c0.37,0.42,0.7,0.87,0.97,1.36c0.28,0.51,0.5,1.05,0.65,1.61C-1874.62-179.18-1874.54-178.59-1874.55-177.99z M-1877.79-177.99 c0.01-1.07-0.04-2.15-0.13-3.21c-0.06-0.7-0.2-1.38-0.43-2.05c-0.14-0.43-0.41-0.8-0.77-1.07c-0.71-0.41-1.59-0.41-2.3,0 c-0.36,0.27-0.63,0.65-0.77,1.07c-0.23,0.66-0.37,1.35-0.43,2.05c-0.18,2.14-0.18,4.29,0,6.43c0.05,0.7,0.2,1.38,0.43,2.05 c0.14,0.43,0.41,0.8,0.77,1.07c0.71,0.41,1.59,0.41,2.3,0c0.36-0.27,0.63-0.65,0.77-1.07c0.23-0.66,0.37-1.35,0.43-2.05 C-1877.82-175.84-1877.78-176.91-1877.79-177.99z"></path> <path id="Path_186" class="st0" d="M-1873.05-171.51v-0.09h1.48v-10.49h-1.81v-0.09c0.51-0.08,1.01-0.2,1.49-0.36 c0.45-0.15,0.89-0.34,1.31-0.57c0.39-0.21,0.76-0.46,1.1-0.74c0.32-0.26,0.6-0.56,0.85-0.89h0.09v13.14h1.48v0.09H-1873.05z"></path> <path id="Path_187" class="st0" d="M-1863.78-172.4c-0.3,0.01-0.59-0.07-0.85-0.23c-0.25-0.15-0.44-0.38-0.55-0.65 c0.09,0.33,0.25,0.63,0.49,0.87c0.24,0.25,0.51,0.45,0.82,0.6c0.32,0.16,0.66,0.28,1.01,0.35c0.35,0.07,0.7,0.11,1.06,0.11 c0.45,0.01,0.89-0.09,1.29-0.3c0.4-0.25,0.7-0.62,0.88-1.05c0.27-0.65,0.43-1.34,0.5-2.04c0.12-1.08,0.17-2.17,0.16-3.26v-0.41 c-0.19,0.62-0.58,1.16-1.11,1.53c-0.54,0.34-1.17,0.51-1.81,0.49c-0.48,0-0.95-0.1-1.39-0.28c-0.47-0.19-0.9-0.46-1.27-0.81 c-0.84-0.79-1.3-1.9-1.28-3.06c-0.01-0.61,0.13-1.22,0.4-1.77c0.26-0.51,0.61-0.96,1.05-1.32c0.43-0.36,0.92-0.64,1.45-0.82 c1.03-0.36,2.16-0.38,3.2-0.04c0.48,0.16,0.94,0.39,1.35,0.68c0.42,0.3,0.79,0.65,1.11,1.05c0.33,0.42,0.61,0.88,0.83,1.36 c0.23,0.52,0.41,1.06,0.52,1.61c0.12,0.58,0.18,1.18,0.18,1.78c0,0.51-0.06,1.02-0.17,1.52c-0.11,0.53-0.28,1.04-0.5,1.53 c-0.22,0.5-0.5,0.98-0.83,1.42c-0.33,0.45-0.73,0.84-1.17,1.17c-0.46,0.34-0.97,0.61-1.52,0.8c-0.6,0.2-1.23,0.31-1.86,0.3 c-0.42,0-0.85-0.05-1.26-0.15c-0.4-0.09-0.79-0.25-1.14-0.47c-0.33-0.2-0.62-0.48-0.83-0.8c-0.22-0.35-0.33-0.75-0.32-1.16 c0-0.22,0.03-0.43,0.1-0.64c0.06-0.2,0.16-0.38,0.29-0.54c0.13-0.16,0.3-0.29,0.49-0.38c0.21-0.1,0.45-0.15,0.68-0.14 c0.21,0,0.42,0.04,0.61,0.12c0.19,0.08,0.36,0.2,0.5,0.34c0.14,0.14,0.26,0.31,0.34,0.5c0.17,0.39,0.17,0.83,0,1.22 c-0.16,0.38-0.46,0.68-0.84,0.84C-1863.37-172.43-1863.58-172.39-1863.78-172.4z M-1861.32-184.63c-0.24,0-0.48,0.07-0.68,0.2 c-0.23,0.17-0.42,0.39-0.54,0.66c-0.18,0.38-0.3,0.79-0.36,1.21c-0.09,0.62-0.14,1.24-0.13,1.86c0,0.49,0.03,0.98,0.08,1.46 c0.04,0.43,0.14,0.85,0.3,1.24c0.13,0.33,0.33,0.63,0.6,0.87c0.27,0.23,0.62,0.34,0.97,0.33c0.28,0.01,0.55-0.05,0.8-0.17 c0.22-0.11,0.42-0.26,0.59-0.44c0.17-0.18,0.31-0.38,0.42-0.6c0.11-0.21,0.2-0.43,0.27-0.65c-0.01-0.91-0.05-1.74-0.12-2.48 c-0.05-0.64-0.16-1.27-0.35-1.88c-0.13-0.45-0.38-0.86-0.71-1.19C-1860.48-184.49-1860.9-184.64-1861.32-184.63L-1861.32-184.63 z"></path> </g> <g id="Group_111" transform="translate(5.526 51.091)"> <path id="Path_196" class="st0" d="M-1887.94-170.85l-1.16-4.44l-1.17,4.44h-1.13l-1.71-6.01h1.17l1.17,4.62l1.24-4.62h0.84 l1.24,4.62l1.17-4.62h1.18l-1.72,6.01H-1887.94z"></path> <path id="Path_197" class="st0" d="M-1883.71-170.85v-6.01h1.05v6.01H-1883.71z"></path> <path id="Path_198" class="st0" d="M-1876.51-170.85l-3.14-4.3v4.3h-1.05v-6.01h1.08l3.07,4.16v-4.16h1.05v6.01H-1876.51z"></path> <path id="Path_199" class="st0" d="M-1869.33-170.85l-3.14-4.3v4.3h-1.05v-6.01h1.08l3.07,4.16v-4.16h1.05v6.01H-1869.33z"></path> <path id="Path_200" class="st0" d="M-1866.35-170.85v-6.01h4.12v0.93h-3.06v1.55h3v0.93h-3v1.68h3.06v0.93L-1866.35-170.85z"></path> <path id="Path_201" class="st0" d="M-1857.04-170.85l-1.32-2.24h-1.05v2.24h-1.05v-6.01h2.64c1.01-0.08,1.89,0.67,1.97,1.67 c0.01,0.07,0.01,0.14,0,0.21c0.05,0.87-0.57,1.64-1.43,1.77l1.48,2.36H-1857.04z M-1856.94-174.99 c0.01-0.52-0.41-0.94-0.93-0.95c-0.03,0-0.06,0-0.1,0h-1.45v1.91h1.45c0.52,0.04,0.98-0.35,1.02-0.87 C-1856.94-174.93-1856.94-174.96-1856.94-174.99z"></path> <g id="Group_110"> <path id="Path_202" class="st0" d="M-1896.83-184.64h2.73c0.65-0.04,1.28,0.18,1.77,0.61c0.34,0.36,0.52,0.83,0.51,1.32v0.02 c0.03,0.89-0.59,1.67-1.46,1.86l1.66,2.32h-1.27l-1.51-2.14h-1.35v2.14h-1.08V-184.64z M-1894.17-181.6 c0.77,0,1.26-0.4,1.26-1.02v-0.02c0-0.66-0.47-1.02-1.27-1.02h-1.57v2.06L-1894.17-181.6z"></path> <path id="Path_203" class="st0" d="M-1890.84-184.64h4.55v0.96h-3.47v1.59h3.07v0.96h-3.07v1.65h3.51v0.96h-4.59 L-1890.84-184.64z"></path> <path id="Path_204" class="st0" d="M-1885.6-181.55v-0.02c-0.03-1.73,1.35-3.14,3.08-3.17c0.03,0,0.06,0,0.09,0 c0.86-0.04,1.71,0.26,2.36,0.83l-0.68,0.81c-0.46-0.44-1.08-0.67-1.72-0.66c-1.14,0.05-2.03,1.01-1.99,2.15c0,0,0,0.01,0,0.01 v0.02c-0.08,1.13,0.77,2.11,1.9,2.19c0.06,0,0.12,0.01,0.18,0c0.53,0.01,1.05-0.16,1.48-0.46v-1.15h-1.57v-0.94h2.62v2.58 c-0.71,0.62-1.62,0.95-2.56,0.95c-1.68,0.08-3.1-1.22-3.18-2.9C-1885.6-181.38-1885.6-181.47-1885.6-181.55z"></path> <path id="Path_205" class="st0" d="M-1878.57-184.64h1.08v6.13h-1.08V-184.64z"></path> <path id="Path_206" class="st0" d="M-1876.65-181.55v-0.02c0.03-1.77,1.49-3.18,3.26-3.16c1.72,0.03,3.12,1.41,3.16,3.14v0.02 c-0.03,1.77-1.49,3.18-3.26,3.16C-1875.22-178.44-1876.62-179.83-1876.65-181.55z M-1871.37-181.55v-0.02 c0.04-1.16-0.86-2.13-2.02-2.18c-0.02,0-0.04,0-0.07,0c-1.14,0-2.07,0.93-2.07,2.07c0,0.03,0,0.06,0,0.09v0.02 c-0.04,1.16,0.86,2.13,2.02,2.18c0.02,0,0.05,0,0.07,0c1.14,0,2.07-0.93,2.07-2.08 C-1871.37-181.49-1871.37-181.52-1871.37-181.55L-1871.37-181.55z"></path> <path id="Path_207" class="st0" d="M-1869.46-184.64h1l3.28,4.24v-4.24h1.06v6.13h-0.9l-3.38-4.36v4.36h-1.06L-1869.46-184.64z "></path> <path id="Path_208" class="st0" d="M-1860.9-184.68h1l2.7,6.17h-1.14l-0.62-1.48h-2.9l-0.63,1.48h-1.1L-1860.9-184.68z M-1859.36-180.94l-1.06-2.45l-1.05,2.45H-1859.36z"></path> <path id="Path_209" class="st0" d="M-1856.5-184.64h1.08v5.15h3.22v0.98h-4.3L-1856.5-184.64z"></path> </g> </g> <g id="Group_112" transform="translate(0 68.656)"> <path id="Path_210" class="st0" d="M-1896.83-184.1h56.44v-0.64h-56.44"></path> </g> <g id="Group_114" transform="translate(0.165 15.105)"> <g id="Group_113" transform="translate(19.141)"> <path id="Path_211" class="st0" d="M-1880.39-172.29h-0.06c0,0-0.61,7.95-7.91,7.95h-0.99v-10.41h0.35 c3.74,0,4.2,4.82,4.2,4.82h0.06v-9.7h-0.06c0,0-0.47,4.82-4.2,4.82h-0.35v-9.88h0.99c5.9,0,6.86,7.34,6.86,7.34h0.06v-7.4 h-15.38v0.06h2.57v20.34h-2.57v0.06h16.43V-172.29z"></path> <path id="Path_212" class="st0" d="M-1859.52-174.51c0-6.49-5.66-10.23-11-10.23h-9.17v0.06h2.57v20.34h-2.57v0.06h9.17 C-1865.18-164.28-1859.52-168.02-1859.52-174.51 M-1864.37-174.51c0,6.34-0.88,10.17-6.16,10.17h-1.69v-20.34h1.69 C-1865.25-184.68-1864.37-180.85-1864.37-174.51"></path> </g> <path id="Path_213" class="st0" d="M-1876.36-164.28c0,0-0.76-0.18-0.85-0.2c-0.82-0.22-1.51-0.48-1.51-2.63v-2.55 c0-3.89-3.65-5.35-6.63-5.49c3.15-0.14,5.4-2.2,5.4-4.63c0-2.89-3.01-4.95-7.62-4.95h-9.25v0.06h2.57v20.35h-2.57v0.06h10.04 v-0.06h-2.57v-20.35h1.08c2.69,0,3.76,1.43,3.76,4.89c0,3.61-0.89,4.45-2.77,4.58v0.11c2.15,0.18,3.53,1.27,3.53,3.83v1.86 c0,3.92,2.6,5.12,5.52,5.12L-1876.36-164.28z"></path> </g> <path id="Path_214" class="st0" d="M-1856.18-177.27c-0.03-1.46-0.17-2.3-0.6-2.72c-0.26-0.28-0.63-0.42-1.01-0.39 c-0.46-0.03-0.91,0.11-1.27,0.39c-0.5,0.43-0.69,1.27-0.72,2.72H-1856.18 M-1853.26-173.58c0.02,0.4-0.29,0.75-0.69,0.77 s-0.75-0.29-0.77-0.69c-0.02-0.4,0.29-0.75,0.69-0.77c0.01,0,0.02,0,0.03,0c0.39-0.02,0.72,0.28,0.74,0.67 C-1853.26-173.59-1853.26-173.58-1853.26-173.58L-1853.26-173.58 M-1879.82-173.07h-3.76c-0.06,0-0.06-0.14,0-0.14h1.05 c0.08,0,0.13-0.02,0.13-0.07v-11.26c0-0.05-0.06-0.07-0.13-0.07h-1.05c-0.06,0-0.06-0.14,0-0.14h2.61c0.04,0,0.04,0.02,0.04,0.05 v11.41c0,0.05,0.04,0.07,0.13,0.07h0.98C-1879.78-173.21-1879.82-173.07-1879.82-173.07 M-1870.14-173.07h-2.68 c-0.04,0-0.06-0.02-0.06-0.05v-1.13c-0.36,0.87-1.24,1.41-2.18,1.34c-1.93,0-3.14-0.91-3.14-2.74v-4.51 c0-0.04-0.04-0.07-0.11-0.07h-1.05c-0.04,0-0.04-0.14,0-0.14h2.52c0.03,0,0.05,0.02,0.06,0.05v5.52 c0.01,0.96,0.77,1.73,1.73,1.75c0.99,0.09,1.91-0.55,2.18-1.51v-5.6c0-0.04-0.04-0.07-0.13-0.07h-1.03c-0.06,0-0.06-0.14,0-0.14 h2.54c0.04,0,0.04,0.04,0.04,0.05v7.06c0,0.03,0.04,0.05,0.13,0.05h1.19C-1870.1-173.2-1870.1-173.06-1870.14-173.07 M-1854.77-177.18c0,0.03-0.02,0.05-0.04,0.05c0,0-0.01,0-0.01,0h-4.95c-0.01,0.14-0.02,0.29-0.02,0.43c0,2,0.19,2.79,0.74,3.27 c0.36,0.27,0.81,0.41,1.27,0.39c1.13-0.01,2.18-0.61,2.76-1.58c0.02-0.02,0.1,0.03,0.08,0.07c-0.61,0.99-1.68,1.61-2.84,1.63 c-2.1-0.2-3.64-2.06-3.44-4.16c0.17-1.83,1.62-3.27,3.44-3.44C-1855.64-180.52-1854.77-178.43-1854.77-177.18L-1854.77-177.18 M-1860.58-173.06h-2.7l-2.34-3.19l-1.93,2.35c-0.55,0.67-0.54,0.7-0.42,0.7h1.19c0.04,0,0.04,0.14,0,0.14h-2.75 c-0.04,0-0.03-0.14,0.01-0.14h1.01c0.13,0,0.25-0.05,0.78-0.7l2.01-2.45l-2.79-3.8c-0.04-0.05-0.11-0.08-0.17-0.07h-1.04 c-0.04,0-0.04-0.14,0-0.14h2.66l2.14,2.9l1.7-2.04c0.55-0.67,0.52-0.72,0.4-0.72h-1.28c-0.04,0-0.04-0.14,0-0.14h2.83 c0.04,0,0.04,0.14,0,0.14h-1.03c-0.13,0-0.23,0.07-0.75,0.72l-1.78,2.14l3.02,4.11c0.02,0.03,0.08,0.05,0.15,0.05h1.06 C-1860.55-173.19-1860.55-173.06-1860.58-173.06L-1860.58-173.06"></path> <g id="Group_115" transform="translate(0.487 39.271)"> <path id="Path_215" class="st0" d="M-1890.21-176.39l-0.6-1.58h-3.78l-0.6,1.58h-1.64l3.23-8.22h1.8l3.23,8.22H-1890.21z M-1892.7-183.16l-1.48,3.92h2.96L-1892.7-183.16z"></path> <path id="Path_216" class="st0" d="M-1880.44-176.39l-1.6-6.07l-1.59,6.07h-1.54l-2.35-8.22h1.61l1.6,6.34l1.7-6.34h1.15 l1.7,6.34l1.59-6.34h1.61l-2.34,8.22H-1880.44z"></path> <path id="Path_217" class="st0" d="M-1868.95-176.39l-0.6-1.58h-3.78l-0.6,1.58h-1.64l3.23-8.22h1.8l3.23,8.22H-1868.95z M-1871.44-183.16l-1.48,3.92h2.96L-1871.44-183.16z"></path> <path id="Path_218" class="st0" d="M-1860.65-176.39l-1.82-3.07h-1.43v3.07h-1.44v-8.22h3.61c1.38-0.1,2.58,0.93,2.68,2.3 c0.01,0.09,0.01,0.18,0.01,0.27c0.07,1.19-0.77,2.23-1.95,2.42l2.01,3.23H-1860.65z M-1860.53-182.04 c0.01-0.72-0.57-1.31-1.29-1.31c-0.04,0-0.08,0-0.12,0h-1.97v2.61h1.97c0.72,0.06,1.34-0.47,1.4-1.19 C-1860.53-181.96-1860.52-182-1860.53-182.04L-1860.53-182.04z"></path> <path id="Path_219" class="st0" d="M-1856.54-176.39v-8.22h3.06c2.27-0.1,4.19,1.66,4.29,3.93c0.1,2.27-1.66,4.19-3.93,4.29 c-0.12,0.01-0.24,0.01-0.36,0H-1856.54z M-1850.66-180.5c0.1-1.47-1-2.74-2.47-2.85c-0.12-0.01-0.24-0.01-0.35,0h-1.61v5.68 h1.62c1.49,0.07,2.75-1.08,2.82-2.57C-1850.65-180.33-1850.65-180.41-1850.66-180.5L-1850.66-180.5z"></path> <path id="Path_220" class="st0" d="M-1847.56-177.55l0.8-1.11c0.67,0.72,1.61,1.13,2.6,1.13c1.18,0,1.65-0.58,1.65-1.12 c0-1.73-4.8-0.65-4.8-3.69c0-1.36,1.2-2.4,3-2.4c1.14-0.04,2.25,0.37,3.08,1.15l-0.83,1.07c-0.64-0.62-1.49-0.95-2.38-0.94 c-0.85,0-1.39,0.41-1.39,1.02c0,1.53,4.78,0.58,4.78,3.65c0,1.37-0.96,2.54-3.18,2.54 C-1845.47-176.18-1846.68-176.66-1847.56-177.55z"></path> </g> </g> </g> </g> </svg> 