<?xml version="1.0" encoding="UTF-8"?> <!-- Generator: Adobe Illustrator 24.2.1, SVG Export Plug-In . SVG Version: 6.00 Build 0) --> <svg xmlns="http://www.w3.org/2000/svg" xmlns:xlink="http://www.w3.org/1999/xlink" version="1.1" id="Layer_1" x="0px" y="0px" viewBox="0 0 113 113" style="enable-background:new 0 0 113 113;" xml:space="preserve"> <style type="text/css"> .st0{fill:#FFFFFF;} </style> <g id="Group_107" transform="translate(2159.721 183.504)"> <path id="Path_163" class="st0" d="M-2131.29-135.98h-5.33v-11.36c-0.01-0.19-0.16-0.34-0.35-0.35h-0.72 c-0.19,0-0.35,0.16-0.35,0.35c0,0,0,0,0,0v12.24c0,0.19,0.16,0.35,0.35,0.35l0,0h6.4c0.19,0,0.35-0.16,0.35-0.35c0,0,0,0,0,0v-0.54 C-2130.94-135.82-2131.1-135.98-2131.29-135.98z"></path> <path id="Path_164" class="st0" d="M-2127.69-134.74h7.29c0.19,0,0.35-0.16,0.35-0.35c0,0,0,0,0,0v-0.54 c0-0.19-0.16-0.35-0.35-0.35l0,0h-6.21v-4.72h5.31c0.19,0,0.35-0.16,0.35-0.35c0,0,0,0,0,0v-0.54c-0.01-0.19-0.16-0.35-0.35-0.35 h-5.31v-4.51h6.21c0.19,0,0.35-0.16,0.35-0.35c0,0,0,0,0,0v-0.54c0-0.19-0.16-0.35-0.35-0.35l0,0h-7.29 c-0.19,0-0.35,0.16-0.35,0.35c0,0,0,0,0,0v12.24C-2128.04-134.9-2127.88-134.74-2127.69-134.74z"></path> <path id="Path_165" class="st0" d="M-2110.49-134.55c1.6,0,3.18-0.42,4.57-1.22c0.08-0.08,0.14-0.18,0.15-0.29v-4.23 c0-0.19-0.15-0.34-0.33-0.35h-3.2c-0.19-0.01-0.34,0.14-0.35,0.33c0,0.01,0,0.02,0,0.02v0.68c0,0.19,0.15,0.33,0.34,0.33 c0,0,0.01,0,0.01,0h2.13v2.59c-1.03,0.53-2.17,0.8-3.33,0.78c-2.94-0.1-5.25-2.56-5.15-5.5c0.09-2.8,2.35-5.06,5.15-5.15 c1.3,0.06,2.55,0.57,3.51,1.44c0.2,0.18,0.31,0.2,0.48,0.02c0.15-0.17,0.35-0.35,0.52-0.52c0.14-0.14,0.14-0.37-0.01-0.51 c0,0-0.01-0.01-0.01-0.01c-1.22-1.12-2.82-1.74-4.48-1.72c-3.68,0-6.66,2.97-6.67,6.65c0,3.68,2.97,6.66,6.65,6.67 C-2110.5-134.55-2110.49-134.55-2110.49-134.55L-2110.49-134.55z"></path> <path id="Path_166" class="st0" d="M-2103.22-134.74h0.74c0.14,0,0.26-0.08,0.31-0.2l1.35-3.05h6.57l1.37,3.05 c0.05,0.12,0.18,0.2,0.31,0.2h0.74c0.18,0.01,0.34-0.12,0.35-0.3c0-0.06-0.01-0.13-0.04-0.18l-5.59-12.45 c-0.05-0.13-0.18-0.21-0.31-0.2h-0.18c-0.14,0-0.26,0.08-0.31,0.2l-5.62,12.45c-0.09,0.16-0.03,0.36,0.13,0.44 C-2103.35-134.75-2103.28-134.73-2103.22-134.74z M-2097.6-145.21h0.15c0.91,2.02,1.79,4.05,2.7,6.07h-5.55L-2097.6-145.21z"></path> <path id="Path_167" class="st0" d="M-2082.91-134.55c1.68,0.02,3.29-0.63,4.49-1.79c0.14-0.13,0.15-0.35,0.02-0.5c0,0,0,0,0,0 l-0.55-0.5c-0.14-0.09-0.33-0.07-0.44,0.06c-0.97,0.88-2.23,1.37-3.53,1.39c-2.94-0.1-5.24-2.56-5.14-5.49 c0.09-2.8,2.34-5.05,5.14-5.14c1.3,0.04,2.55,0.53,3.53,1.39c0.19,0.18,0.33,0.2,0.48,0.02l0.5-0.5c0.14-0.14,0.14-0.37-0.01-0.51 c0,0-0.01-0.01-0.01-0.01c-1.22-1.12-2.82-1.74-4.48-1.72c-3.68,0-6.66,2.97-6.67,6.65c0,3.68,2.97,6.66,6.65,6.67 C-2082.92-134.55-2082.92-134.55-2082.91-134.55L-2082.91-134.55z"></path> <path id="Path_168" class="st0" d="M-2072.04-140.97v5.88c0,0.19,0.16,0.35,0.35,0.35l0,0h0.72c0.19-0.01,0.35-0.16,0.35-0.35v-5.9 l4.51-6.16c0.11-0.16,0.07-0.37-0.09-0.48c-0.06-0.04-0.13-0.06-0.2-0.06h-0.87c-0.12,0.01-0.22,0.07-0.29,0.17l-3.74,5.16 l-3.74-5.16c-0.07-0.1-0.17-0.16-0.29-0.17h-0.88c-0.19-0.01-0.35,0.14-0.35,0.33c0,0.07,0.02,0.14,0.06,0.2L-2072.04-140.97z"></path> <path id="Path_169" class="st0" d="M-2136.86-125.47c-0.05-0.13-0.18-0.21-0.31-0.2h-0.18c-0.14,0-0.26,0.08-0.31,0.2l-5.62,12.45 c-0.09,0.16-0.03,0.36,0.13,0.44c0.06,0.03,0.12,0.04,0.18,0.04h0.74c0.14,0,0.26-0.08,0.31-0.2l1.35-3.05h6.57l1.37,3.05 c0.05,0.13,0.18,0.21,0.31,0.2h0.74c0.18,0.02,0.34-0.12,0.35-0.3c0.01-0.06-0.01-0.13-0.04-0.18L-2136.86-125.47z M-2140.06-116.95l2.7-6.07h0.15c0.91,2.02,1.79,4.05,2.7,6.07H-2140.06z"></path> <path id="Path_170" class="st0" d="M-2115.02-125.49h-0.78c-0.15,0.01-0.28,0.11-0.33,0.26l-2.51,9.58h-0.07l-3.14-9.82 c-0.05-0.13-0.18-0.21-0.31-0.2h-0.33c-0.14-0.01-0.27,0.07-0.31,0.2l-3.09,9.82h-0.07l-2.57-9.58c-0.05-0.15-0.18-0.25-0.33-0.26 h-0.78c-0.18-0.02-0.34,0.11-0.36,0.29c-0.01,0.05,0,0.11,0.02,0.16l3.5,12.43c0.04,0.15,0.18,0.25,0.33,0.26h0.29 c0.13-0.01,0.25-0.08,0.31-0.2l3.14-10.01h0.1l3.2,10.01c0.06,0.12,0.18,0.2,0.31,0.2h0.29c0.16,0,0.29-0.11,0.33-0.26l3.5-12.43 c0.07-0.16-0.01-0.35-0.18-0.42C-2114.92-125.49-2114.97-125.5-2115.02-125.49z"></path> <path id="Path_171" class="st0" d="M-2104.14-115.8l1.37,3.05c0.05,0.12,0.18,0.21,0.31,0.2h0.74c0.18,0.02,0.34-0.12,0.35-0.3 c0.01-0.06-0.01-0.13-0.04-0.18l-5.59-12.45c-0.05-0.13-0.18-0.21-0.31-0.2h-0.19c-0.14,0-0.26,0.08-0.31,0.2l-5.62,12.45 c-0.09,0.16-0.03,0.36,0.13,0.44c0.06,0.03,0.12,0.04,0.18,0.04h0.74c0.14,0,0.26-0.08,0.31-0.2l1.35-3.05L-2104.14-115.8z M-2107.49-123.01h0.15c0.91,2.02,1.79,4.05,2.7,6.07h-5.55L-2107.49-123.01z"></path> <path id="Path_172" class="st0" d="M-2089.29-121.55c-0.02-2.2-1.81-3.96-4.01-3.94c-0.01,0-0.02,0-0.02,0h-4.79 c-0.19,0-0.35,0.16-0.35,0.35c0,0,0,0,0,0v12.24c0,0.19,0.16,0.35,0.35,0.35c0,0,0,0,0,0h0.72c0.19-0.01,0.35-0.16,0.35-0.35v-4.72 h3.53l2.46,4.9c0.06,0.11,0.17,0.17,0.29,0.17h0.94c0.19,0.01,0.36-0.14,0.37-0.33c0-0.07-0.02-0.14-0.05-0.2l-2.53-4.7 C-2090.43-118.35-2089.34-119.85-2089.29-121.55z M-2093.42-118.83h-3.59v-5.31h3.59c1.47-0.03,2.68,1.14,2.71,2.6 s-1.14,2.68-2.6,2.71C-2093.35-118.83-2093.38-118.83-2093.42-118.83z"></path> <path id="Path_173" class="st0" d="M-2080.84-125.49h-4.14c-0.19,0.01-0.34,0.16-0.33,0.35v12.24c0,0.19,0.15,0.34,0.33,0.35h4.14 c3.57,0.09,6.54-2.74,6.63-6.31c0.09-3.57-2.74-6.54-6.31-6.63C-2080.63-125.49-2080.73-125.49-2080.84-125.49L-2080.84-125.49z M-2081.13-113.82h-2.77v-10.41h2.77c2.88,0,5.21,2.33,5.21,5.21C-2075.93-116.15-2078.26-113.82-2081.13-113.82z"></path> <path id="Path_174" class="st0" d="M-2071.37-122.38c0,2.11,1.22,2.94,3.25,3.83c2.13,0.89,3.24,1.65,3.24,2.92 c-0.1,1.23-1.18,2.14-2.4,2.04c-0.02,0-0.05,0-0.07-0.01c-1.17-0.09-2.28-0.59-3.13-1.41c-0.26-0.22-0.46-0.07-0.65,0.17 c-0.1,0.11-0.18,0.24-0.28,0.35c-0.15,0.17-0.14,0.42,0.03,0.57c0.02,0.02,0.05,0.04,0.08,0.06c1.08,0.95,2.46,1.48,3.9,1.5 c2.16,0,3.99-1.41,3.99-3.33c0-2.14-1.61-3.09-4.11-4.11c-1.56-0.65-2.5-1.37-2.5-2.61c0-0.78,0.59-2.03,2.55-2.03 c0.87,0.08,1.7,0.37,2.42,0.85c0.18,0.14,0.44,0.11,0.59-0.07c0.02-0.03,0.04-0.06,0.06-0.1c0.07-0.11,0.15-0.24,0.22-0.35 c0.15-0.17,0.13-0.43-0.04-0.58c-0.02-0.02-0.04-0.03-0.07-0.05c-0.95-0.6-2.04-0.93-3.16-0.94 C-2070.37-125.68-2071.37-123.64-2071.37-122.38z"></path> <path id="Path_175" class="st0" d="M-2103.37-182.95l-51.79,29.35l0.03,0.41c0.03,0.35,2.64,34.7,7.2,48.08 c0.74,2.16,1.36,4.15,1.92,5.9c2.97,9.4,4.46,14.12,13.63,18.16c10.52,4.64,28.62,10.67,28.8,10.73l0.2,0.07l0.21-0.07 c0.18-0.06,18.29-6.09,28.8-10.73c9.17-4.05,10.66-8.76,13.63-18.16c0.55-1.75,1.18-3.74,1.92-5.9c4.56-13.37,7.18-47.73,7.2-48.08 l0.03-0.41L-2103.37-182.95z M-2060.04-105.53c-0.74,2.17-1.37,4.17-1.93,5.93c-2.94,9.31-4.28,13.56-12.92,17.37 c-9.16,4.04-24.13,9.15-27.83,10.39v-10.71h-1.3v10.72c-3.71-1.25-18.68-6.35-27.83-10.39c-8.63-3.81-9.97-8.06-12.92-17.37 c-0.56-1.76-1.19-3.76-1.93-5.93c-4.24-12.43-6.79-43.4-7.1-47.34l49.78-28.21v28.71h1.3v-28.71l49.78,28.21 C-2053.25-148.93-2055.8-117.96-2060.04-105.53L-2060.04-105.53z"></path> <rect id="Rectangle_36" x="-2121.43" y="-130.8" class="st0" width="36.13" height="0.43"></rect> <path id="Path_176" class="st0" d="M-2109.53-105.35v-0.15c0-0.05-0.05-0.1-0.1-0.1h-1.58c0.34-0.37,0.69-0.74,1.03-1.1 c0.38-0.3,0.62-0.74,0.67-1.22c0-0.58-0.47-1.04-1.05-1.04c-0.04,0-0.08,0-0.12,0.01c-0.4,0.02-0.78,0.21-1.02,0.53 c-0.03,0.04-0.03,0.1,0,0.14l0.11,0.1c0.04,0.04,0.1,0.04,0.14,0.01c0,0,0.01,0,0.01-0.01c0.19-0.23,0.46-0.38,0.76-0.4 c0.37-0.04,0.71,0.23,0.75,0.61c0,0.02,0,0.05,0,0.07c-0.06,0.38-0.25,0.72-0.54,0.97c-0.44,0.47-0.88,0.95-1.32,1.43v0.16 c0,0.05,0.04,0.1,0.1,0.1c0,0,0,0,0,0h2.04C-2109.57-105.26-2109.53-105.3-2109.53-105.35z"></path> <path id="Path_177" class="st0" d="M-2105.35-108.96c-0.83,0-1.31,0.7-1.31,1.88s0.47,1.88,1.31,1.88c0.83,0,1.31-0.7,1.31-1.88 S-2104.52-108.96-2105.35-108.96z M-2105.35-105.55c-0.59,0-0.92-0.55-0.92-1.53c0-0.98,0.33-1.53,0.92-1.53s0.93,0.56,0.93,1.53 C-2104.43-106.11-2104.76-105.55-2105.35-105.55L-2105.35-105.55z"></path> <path id="Path_178" class="st0" d="M-2100.6-105.25h0.19c0.05,0,0.1-0.04,0.1-0.1c0,0,0,0,0,0v-3.45c0-0.05-0.04-0.1-0.09-0.1 c0,0,0,0-0.01,0h-0.15l-0.75,0.73c-0.04,0.03-0.04,0.08-0.01,0.12l0.1,0.11c0.03,0.04,0.08,0.04,0.12,0.01c0,0,0.01,0,0.01-0.01 l0.39-0.3v2.89C-2100.7-105.3-2100.66-105.25-2100.6-105.25C-2100.6-105.25-2100.6-105.25-2100.6-105.25z"></path> <path id="Path_179" class="st0" d="M-2096.21-109c-0.67,0.02-1.2,0.57-1.19,1.23c-0.02,0.63,0.48,1.15,1.1,1.17 c0.02,0,0.03,0,0.05,0c0.29-0.01,0.57-0.09,0.82-0.24c-0.26,0.61-0.76,1.1-1.38,1.34c-0.1,0.03-0.12,0.09-0.1,0.16l0.06,0.13 c0.01,0.05,0.06,0.07,0.11,0.06c0,0,0.01,0,0.01,0c1.01-0.33,1.71-1.24,1.77-2.3C-2094.96-108.31-2095.34-109-2096.21-109z M-2095.36-107.3c-0.23,0.21-0.53,0.34-0.85,0.35c-0.45,0-0.82-0.38-0.81-0.83c0,0,0-0.01,0-0.01c-0.01-0.46,0.35-0.84,0.81-0.86 C-2095.47-108.64-2095.26-107.83-2095.36-107.3L-2095.36-107.3z"></path> <path id="Path_180" class="st0" d="M-2103.37-101.06c-4.35,0-7.87,3.52-7.87,7.87c0,4.35,3.52,7.87,7.87,7.87 c4.35,0,7.87-3.52,7.87-7.87c0,0,0,0,0,0C-2095.5-97.54-2099.02-101.06-2103.37-101.06z M-2103.37-85.76 c-4.11,0-7.44-3.33-7.44-7.44s3.33-7.44,7.44-7.44c4.11,0,7.44,3.33,7.44,7.44c0,0,0,0,0,0 C-2095.93-89.09-2099.26-85.76-2103.37-85.76z"></path> <path id="Path_181" class="st0" d="M-2099.41-91.08c-0.1,0.31-0.18,0.63-0.3,0.94c-0.08,0.24-0.29,0.41-0.54,0.44 c-0.32,0.03-0.65,0.04-0.97,0.04c-0.19,0-0.25-0.1-0.27-0.33c0-0.05-0.01-0.11-0.01-0.16c0-2.01,0-4.01,0-6.02 c0-0.15,0.02-0.3,0.04-0.45c0.01-0.17,0.13-0.3,0.29-0.34c0.1-0.02,0.19-0.04,0.3-0.06c-0.01-0.07-0.01-0.12-0.02-0.18h-1.98v0.02 h-0.73l-1.31,5.79l-0.03-0.01c-0.44-1.92-0.87-3.85-1.31-5.79h-0.22l-1.06-0.01v0.24c0.06,0,0.11,0,0.17,0.01 c0.22,0.04,0.33,0.16,0.37,0.44c0.03,0.19,0.04,0.38,0.04,0.56c0,1.87,0,3.74,0,5.61c0,0.13-0.01,0.27-0.03,0.4 c-0.05,0.36-0.14,0.47-0.43,0.52c-0.04,0-0.08,0-0.11,0v0.24l1.46-0.02v-0.2c-0.06-0.01-0.11-0.01-0.16-0.02 c-0.26-0.05-0.34-0.13-0.39-0.46c-0.03-0.2-0.04-0.41-0.03-0.61c0-1.59,0-3.18,0-4.77v-0.23c0.03,0.02,0.05,0.05,0.05,0.08 l0.46,2.02c0.31,1.34,0.61,2.68,0.92,4.02c0.02,0.06,0.04,0.12,0.06,0.18c0.04-0.02,0.06-0.02,0.06-0.03 c0.49-2.15,0.99-4.31,1.48-6.46h0.02v0.16c0,1.74,0,3.48,0,5.21c0,0.13-0.01,0.25-0.03,0.38c-0.05,0.35-0.14,0.46-0.42,0.5 c-0.03,0-0.06,0-0.1,0.01c-0.02,0.01-0.04,0.01-0.06,0.02l0.01,0.18h1.33v0.03h3.27c0.12-0.71,0.24-1.42,0.36-2.13l-0.13-0.04 C-2099.37-91.27-2099.38-91.17-2099.41-91.08z M-2102.25-89.84c-0.01,0.17-0.11,0.32-0.27,0.38c-0.19-0.06-0.29-0.18-0.32-0.45 c-0.02-0.15-0.03-0.3-0.03-0.45c0-1.9,0-3.81,0-5.71c0-0.15,0.01-0.3,0.03-0.45c0.03-0.26,0.12-0.38,0.31-0.43 c0.16,0.06,0.27,0.21,0.28,0.38c0.02,0.15,0.04,0.3,0.04,0.45c0,1.95,0,3.91,0,5.86C-2102.21-90.12-2102.22-89.98-2102.25-89.84 L-2102.25-89.84z"></path> </g> </svg> 