<?xml version="1.0" encoding="UTF-8"?> <!-- Generator: Adobe Illustrator 24.2.1, SVG Export Plug-In . SVG Version: 6.00 Build 0) --> <svg xmlns="http://www.w3.org/2000/svg" xmlns:xlink="http://www.w3.org/1999/xlink" version="1.1" id="Layer_1" x="0px" y="0px" viewBox="0 0 113 113" style="enable-background:new 0 0 113 113;" xml:space="preserve"> <style type="text/css"> .st0{fill:#FFFFFF;} </style> <g id="Group_106" transform="translate(1635.56 200.591)"> <path id="Path_119" class="st0" d="M-1583.69-168c-0.14,0.81-0.28,1.63-0.42,2.44s-0.28,1.6-0.42,2.4 c-0.15,0.84-0.29,1.68-0.43,2.52c-0.14,0.78-0.28,1.55-0.41,2.33c-0.15,0.84-0.29,1.68-0.43,2.52c-0.11,0.65-0.22,1.3-0.34,1.95 c-0.12,0.68-0.23,1.35-0.35,2.03c-0.14,0.79-0.28,1.58-0.41,2.36c-0.01,0.1-0.01,0.21,0,0.31h3.98c0.78-4.47,1.55-8.93,2.33-13.38 c0.8,2.2,1.54,4.43,2.28,6.65c0.74,2.24,1.49,4.48,2.25,6.73h3.63c0.03-0.07,0.07-0.14,0.09-0.21c0.41-1.22,0.82-2.43,1.23-3.65 c1.04-3.09,2.09-6.19,3.13-9.28c0.03-0.08,0.07-0.16,0.13-0.29c0.39,2.3,0.76,4.53,1.14,6.76s0.76,4.45,1.14,6.67 c1.33,0.07,2.66,0.05,3.99-0.05c-1.2-7.15-2.4-14.3-3.6-21.46h-4.03l-5.02,14.96c-0.85-2.56-1.67-5.04-2.5-7.53 s-1.65-4.96-2.48-7.43h-4.02C-1583.38-169.76-1583.53-168.88-1583.69-168z"></path> <path id="Path_120" class="st0" d="M-1609.67-154.54c0.6,1.11,1.38,2.12,2.3,2.99c1.07,1.03,2.34,1.83,3.74,2.33 c1.18,0.41,2.42,0.63,3.67,0.64c1.2,0.04,2.39-0.11,3.55-0.44c1.35-0.4,2.6-1.07,3.68-1.97c1.2-0.97,2.2-2.18,2.93-3.54 c0.86-1.63,1.28-3.46,1.23-5.3c0.01-0.7-0.05-1.4-0.16-2.09c-0.21-1.3-0.66-2.54-1.33-3.67c-0.77-1.3-1.78-2.44-2.98-3.36 c-1.84-1.45-4.1-2.24-6.44-2.25c-0.47-0.01-0.94,0.04-1.41,0.06c-0.56,0.03-1.11,0.13-1.65,0.29c-4.8,1.24-8.22,5.47-8.42,10.43 c-0.03,0.79,0.01,1.58,0.14,2.36C-1610.66-156.84-1610.27-155.64-1609.67-154.54z M-1606.76-160.79c0.21-2.4,1.63-4.52,3.77-5.63 c0.66-0.35,1.39-0.58,2.14-0.66c0.39-0.04,0.79-0.07,1.18-0.07c1.49-0.03,2.95,0.47,4.11,1.4c1.15,0.87,2.01,2.06,2.48,3.42 c0.27,0.78,0.39,1.61,0.37,2.44c0.12,3.29-2.04,6.23-5.21,7.11c-0.89,0.22-1.82,0.27-2.73,0.15c-1.16-0.14-2.26-0.57-3.2-1.26 c-1.36-0.93-2.33-2.33-2.72-3.94c-0.09-0.45-0.16-0.9-0.2-1.36C-1606.84-159.72-1606.83-160.26-1606.76-160.79L-1606.76-160.79z"></path> <path id="Path_121" class="st0" d="M-1625.49-149.18v-9.37h7.14v7.71c0,0.29-0.01,0.59,0,0.88c-0.02,0.27-0.01,0.55,0.03,0.82h4.12 c0-7.13,0-14.22,0-21.31c0-0.05-0.01-0.1-0.01-0.15c0-0.01-0.01-0.02-0.02-0.03c-0.01-0.01-0.02-0.02-0.03-0.02 c-1.37-0.06-2.73-0.04-4.1,0.04c0,2.67,0,5.33,0,8c0,0.01-0.02,0.02-0.02,0.03l-0.03,0.03c-1.78,0.07-6.77,0.03-7.1-0.05v-8.02 c-0.44-0.07-3.91-0.05-4.17,0.01c-0.07,1.11-0.04,21.18,0.04,21.48C-1628.79-149.09-1625.82-149.11-1625.49-149.18z"></path> <path id="Path_122" class="st0" d="M-1546.32-158.81c0.07-1.33,0.06-2.66-0.03-3.98h-7.58v-3.84h7.61 c0.06-1.34,0.06-2.69-0.02-4.03h-11.72v21.51h11.76v-4.05h-4.57c-0.51,0-1.02,0-1.53,0s-1.01,0.02-1.53-0.02v-5.6L-1546.32-158.81z "></path> <path id="Path_123" class="st0" d="M-1541.28-169.03c-1.04,1.21-1.42,2.86-1.03,4.41c0.29,1.16,0.89,2.21,1.73,3.05 c1.2,1.24,2.47,2.4,3.83,3.47c0.71,0.56,1.39,1.17,2.01,1.83c0.31,0.32,0.54,0.71,0.69,1.13c0.21,0.56,0.11,1.19-0.27,1.66 c-0.61,0.79-1.63,1.15-2.6,0.92c-0.81-0.16-1.53-0.62-2.03-1.28c-0.33-0.4-0.6-0.85-0.9-1.28c-0.05-0.08-0.11-0.16-0.18-0.24 l-3.45,2.08c0.41,0.82,0.91,1.58,1.5,2.28c1.13,1.36,2.76,2.21,4.52,2.36c1.03,0.12,2.07,0.05,3.07-0.22 c1.7-0.43,3.12-1.58,3.89-3.15c0.5-1.04,0.69-2.2,0.56-3.34c-0.12-1.17-0.57-2.29-1.3-3.21c-0.44-0.58-0.94-1.11-1.49-1.59 c-1.09-0.95-2.2-1.87-3.29-2.81c-0.64-0.56-1.25-1.16-1.88-1.75c-0.11-0.11-0.2-0.23-0.28-0.37c-0.41-0.57-0.29-1.37,0.28-1.78 c0.04-0.03,0.08-0.05,0.12-0.08c0.15-0.1,0.31-0.18,0.48-0.24c0.63-0.18,1.31-0.12,1.89,0.19c0.56,0.29,1.05,0.69,1.45,1.17 c0.2,0.24,0.4,0.48,0.62,0.75l3.05-2.69c-0.53-0.64-1.11-1.23-1.75-1.77c-1.68-1.49-3.98-2.06-6.16-1.52 C-1539.4-170.72-1540.5-170.03-1541.28-169.03z"></path> <path id="Path_124" class="st0" d="M-1606.57-173.78c0.76,0.27,1.57,0.36,2.36,0.28c0.69-0.05,1.36-0.25,1.96-0.58 c1.47-0.78,2.48-2.22,2.7-3.86c0.18-1.08,0.02-2.18-0.45-3.16c-1-2.16-3.35-3.37-5.69-2.92c-1.02,0.17-1.97,0.66-2.71,1.38 c-1.08,1.03-1.67,2.47-1.61,3.95c-0.02,1,0.27,1.98,0.83,2.81C-1608.56-174.91-1607.65-174.17-1606.57-173.78z M-1606.55-181.68 c1.57-0.98,3.64-0.5,4.62,1.07c0.27,0.43,0.44,0.92,0.49,1.43c-0.04,1.87-0.69,2.94-2.01,3.54c-1.07,0.49-2.32,0.35-3.25-0.38 c-0.66-0.45-1.11-1.15-1.26-1.93C-1608.31-179.37-1607.75-180.85-1606.55-181.68L-1606.55-181.68z"></path> <path id="Path_125" class="st0" d="M-1588.14-173.83c0.78,0.31,1.63,0.43,2.47,0.33c0.7-0.05,1.38-0.25,2-0.59 c2.08-1.13,3.16-3.51,2.63-5.82c-0.27-1.4-1.11-2.62-2.32-3.38c-2.05-1.3-4.72-1.04-6.48,0.63c-1.06,0.99-1.65,2.38-1.64,3.83 c0.04,0.37,0.05,0.74,0.12,1.1C-1591.03-175.95-1589.81-174.48-1588.14-173.83z M-1588.84-180.87c0.58-0.81,1.51-1.3,2.51-1.32 c1.66-0.05,3.1,1.13,3.39,2.77c0.03,0.23,0.04,0.46,0.04,0.69c0.02,1.82-1.43,3.32-3.26,3.34c-1.56,0.02-2.92-1.05-3.26-2.57 C-1589.67-178.98-1589.45-180.04-1588.84-180.87L-1588.84-180.87z"></path> <path id="Path_126" class="st0" d="M-1547.88-174.6c1.17,0.96,2.71,1.35,4.2,1.06c1.37-0.21,2.59-0.98,3.37-2.12 c0.66-0.89,1-1.98,0.95-3.08c0.05-1.16-0.31-2.29-1.01-3.21c-1.72-2.34-5-2.85-7.35-1.13c-0.69,0.5-1.24,1.17-1.62,1.93 C-1550.43-178.9-1549.83-176.18-1547.88-174.6L-1547.88-174.6z M-1546.88-181.3c0.63-0.62,1.5-0.95,2.39-0.9 c1.61,0.06,2.94,1.27,3.15,2.87c0.13,0.8-0.02,1.62-0.42,2.32c-0.56,1.04-1.66,1.67-2.83,1.64c-1.47,0.01-2.76-0.96-3.16-2.37 C-1548.16-179-1547.82-180.37-1546.88-181.3L-1546.88-181.3z"></path> <path id="Path_127" class="st0" d="M-1558.42-173.74c1.1,0.03,2.19,0,3.29-0.09c0.51-0.05,1-0.2,1.44-0.45 c0.88-0.51,1.55-1.32,1.88-2.28c0.32-0.87,0.44-1.81,0.33-2.74c-0.06-0.8-0.3-1.58-0.69-2.28c-0.48-0.93-1.31-1.63-2.3-1.96 c-0.71-0.21-1.44-0.31-2.18-0.32c-0.88-0.02-1.76-0.01-2.64-0.01c-0.05,0-0.1,0.01-0.16,0.02v10.11 C-1559.08-173.74-1558.75-173.73-1558.42-173.74z M-1557.53-181.95c0.67-0.04,1.34,0,1.99,0.13c0.97,0.22,1.73,0.97,1.96,1.94 c0.23,0.78,0.23,1.6,0,2.38c-0.15,0.68-0.6,1.26-1.23,1.58c-0.3,0.14-0.62,0.22-0.95,0.24c-0.58,0.04-1.17,0.01-1.77,0.01 L-1557.53-181.95z"></path> <path id="Path_128" class="st0" d="M-1576.79-173.76v-2.12c0-0.35,0-0.69,0-1.04s0-0.71,0-1.06c0.21-0.01,0.24,0.15,0.29,0.25 c0.66,1.24,1.32,2.47,1.97,3.71c0.05,0.09,0.1,0.17,0.15,0.25c0.7,0.06,1.41,0.05,2.11-0.04l-0.59-1.11 c-0.19-0.36-0.38-0.72-0.57-1.08s-0.41-0.74-0.59-1.11c-0.22-0.36-0.4-0.73-0.56-1.12c0.12-0.05,0.21-0.09,0.31-0.13 c0.64-0.27,1.14-0.8,1.39-1.46c0.26-0.73,0.25-1.53-0.02-2.25c-0.28-0.85-0.99-1.48-1.87-1.64c-0.37-0.08-0.75-0.13-1.13-0.14 c-0.93-0.02-1.86-0.01-2.82-0.01c-0.06,0.47-0.05,9.81,0.01,10.1L-1576.79-173.76z M-1576.76-181.99c0.47,0.04,0.91,0.04,1.35,0.11 c0.54,0.1,0.89,0.61,0.8,1.15c-0.02,0.11-0.06,0.21-0.11,0.3c-0.15,0.27-0.44,0.45-0.75,0.46c-0.42,0.05-0.84,0.06-1.25,0.09 C-1576.82-180.58-1576.83-181.29-1576.76-181.99z"></path> <path id="Path_129" class="st0" d="M-1568.93-173.78l0.81-2.02h4.08l0.8,2.07c0.64,0,1.27,0,1.89,0c0.04-0.01,0.09-0.02,0.13-0.04 l-3.87-10.07h-1.99l-3.88,10.06C-1570.29-173.72-1569.61-173.72-1568.93-173.78z M-1566.09-181.1c0.46,1.13,0.87,2.22,1.29,3.3 c-0.86,0.08-1.73,0.08-2.59,0.01C-1566.96-178.87-1566.53-179.95-1566.09-181.1z"></path> <path id="Path_130" class="st0" d="M-1617.49-173.68c0.72,0.2,1.48,0.26,2.23,0.18c0.7-0.06,1.38-0.25,2.01-0.57 c0.66-0.35,1.26-0.82,1.76-1.37l-1.3-1.38c-0.09,0.09-0.17,0.16-0.24,0.22s-0.18,0.15-0.26,0.22c-0.88,0.85-2.13,1.2-3.32,0.93 c-1.16-0.2-2.12-1.02-2.49-2.13c-0.16-0.47-0.22-0.97-0.17-1.47c0.02-1.29,0.82-2.44,2.03-2.9c1.22-0.52,2.62-0.33,3.66,0.49 c0.28,0.2,0.53,0.44,0.81,0.68l1.36-1.31c-0.24-0.23-0.45-0.44-0.67-0.63c-1.84-1.59-4.48-1.85-6.59-0.65 c-1.49,0.82-2.46,2.36-2.56,4.06c-0.06,0.61-0.01,1.23,0.13,1.82C-1620.75-175.62-1619.33-174.13-1617.49-173.68z"></path> <path id="Path_131" class="st0" d="M-1592.67-173.8c0-0.29,0-0.58,0-0.87s0.01-0.6-0.01-0.93h-2.81v-4.96c0-0.55,0-1.1,0-1.65 s0.01-1.09-0.01-1.64h-1.9v10.08C-1596.85-173.71-1592.96-173.72-1592.67-173.8z"></path> <path id="Path_132" class="st0" d="M-1605.72-142.06c-0.35,0.58-0.17,1.34,0.41,1.69c0.16,0.1,0.33,0.16,0.52,0.17 c0.5,0.08,1-0.02,1.43-0.29c0.27-0.16,0.52-0.35,0.81-0.53l0.65,0.69c0.26,0,0.53-0.01,0.79-0.04l-0.99-1.02l0.63-0.53l-0.39-0.38 l-0.67,0.51l-1.3-1.34c0.15-0.12,0.28-0.24,0.41-0.38c0.17-0.19,0.31-0.4,0.42-0.63c0.15-0.31,0.09-0.68-0.15-0.92 c-0.51-0.5-1.32-0.53-1.86-0.06c-0.27,0.22-0.36,0.58-0.23,0.9c0.09,0.21,0.2,0.41,0.32,0.6c0.08,0.13,0.18,0.24,0.28,0.38 c-0.2,0.18-0.39,0.33-0.55,0.51C-1605.41-142.52-1605.58-142.3-1605.72-142.06z M-1604.33-144.86c0.33-0.13,0.71,0.04,0.83,0.37 c0,0.01,0,0.01,0.01,0.02c-0.11,0.39-0.37,0.72-0.72,0.92c-0.15-0.2-0.31-0.39-0.44-0.61c-0.15-0.19-0.12-0.46,0.06-0.61 C-1604.51-144.82-1604.42-144.85-1604.33-144.86L-1604.33-144.86z M-1604.28-142.79l1.25,1.32c-0.35,0.4-0.82,0.67-1.35,0.76 c-0.3,0.03-0.59-0.09-0.78-0.32c-0.18-0.19-0.22-0.48-0.1-0.71c0.08-0.17,0.19-0.33,0.32-0.47 C-1604.73-142.41-1604.5-142.59-1604.28-142.79L-1604.28-142.79z"></path> <path id="Path_133" class="st0" d="M-1585.16-145.08c0.28,0,0.56,0.01,0.84,0c0.27,0.02,0.53,0.01,0.79-0.04c0-0.09,0-0.17,0-0.24 s-0.01-0.14-0.01-0.21c-1.01-0.05-2.02-0.05-3.03,0.01c-0.06,0.61-0.04,4.95,0.02,5.22h2.98v-0.52h-2.43v-2.05 c0.44,0,0.83,0.01,1.22,0c0.4,0.02,0.8,0.01,1.2-0.02v-0.52h-1.21c-0.4,0-0.81,0-1.23-0.01c0-0.56-0.01-1.07,0.01-1.61 L-1585.16-145.08z"></path> <path id="Path_134" class="st0" d="M-1562.23-140.35h2.98v-0.52h-2.41c-0.06-0.69-0.05-1.38,0.04-2.06h2.32 c0.01,0,0.02-0.01,0.03-0.02s0.02-0.02,0.04-0.04c0.03-0.16,0.01-0.32-0.04-0.48c-0.4,0-0.8,0-1.19,0s-0.81,0-1.22-0.01 c0-0.3,0-0.55,0-0.8s-0.01-0.53,0.01-0.82h2.48v-0.5c-1.01-0.05-2.02-0.05-3.03,0.03L-1562.23-140.35z"></path> <path id="Path_135" class="st0" d="M-1580.97-140.9c-0.14-0.11-0.26-0.24-0.37-0.39c-0.08-0.09-0.15-0.2-0.23-0.3 c-0.17,0.11-0.35,0.14-0.44,0.32c0.07,0.11,0.12,0.21,0.19,0.3c0.32,0.51,0.88,0.81,1.48,0.79c0.55-0.01,1.05-0.33,1.29-0.82 c0.24-0.44,0.21-0.97-0.09-1.37c-0.19-0.26-0.4-0.49-0.65-0.7c-0.29-0.25-0.61-0.46-0.9-0.71c-0.15-0.12-0.27-0.27-0.36-0.44 c-0.17-0.32-0.04-0.71,0.27-0.87c0.1-0.05,0.21-0.08,0.32-0.07c0.26-0.02,0.51,0.08,0.69,0.27c0.11,0.12,0.22,0.24,0.34,0.36 l0.47-0.36c-0.18-0.2-0.37-0.39-0.57-0.57c-0.56-0.47-1.39-0.4-1.86,0.16c-0.13,0.15-0.22,0.33-0.27,0.53 c-0.1,0.43,0.03,0.89,0.35,1.19c0.24,0.23,0.49,0.44,0.76,0.64c0.32,0.23,0.61,0.5,0.86,0.81c0.15,0.19,0.21,0.44,0.18,0.68 c-0.12,0.5-0.63,0.81-1.14,0.69C-1580.77-140.78-1580.88-140.83-1580.97-140.9z"></path> <path id="Path_136" class="st0" d="M-1556.63-140.9c-0.16-0.14-0.31-0.3-0.45-0.47c-0.06-0.06-0.1-0.13-0.17-0.22l-0.46,0.29 c0.13,0.19,0.24,0.38,0.38,0.54c0.33,0.42,0.85,0.64,1.39,0.59c0.79-0.04,1.4-0.71,1.36-1.49c-0.01-0.23-0.08-0.46-0.2-0.66 c-0.13-0.21-0.28-0.39-0.46-0.55c-0.32-0.29-0.68-0.53-1.01-0.82c-0.18-0.14-0.33-0.32-0.45-0.51c-0.17-0.32-0.05-0.71,0.27-0.88 c0.09-0.05,0.2-0.08,0.31-0.08c0.3-0.02,0.59,0.11,0.77,0.34c0.08,0.09,0.16,0.19,0.25,0.29l0.45-0.34 c-0.25-0.43-0.66-0.74-1.14-0.87c-0.69-0.15-1.37,0.28-1.52,0.96c-0.02,0.08-0.03,0.16-0.03,0.24c0,0.45,0.21,0.88,0.57,1.16 c0.28,0.23,0.57,0.43,0.84,0.67c0.23,0.2,0.44,0.43,0.63,0.66c0.14,0.19,0.18,0.43,0.11,0.65c-0.16,0.49-0.68,0.77-1.17,0.61 C-1556.46-140.8-1556.55-140.84-1556.63-140.9z"></path> <path id="Path_137" class="st0" d="M-1588.68-145.09v-0.5c-0.88-0.06-1.76-0.05-2.64,0.02c-0.06,0.78-0.04,4.94,0.03,5.23h0.55 v-2.58c0.37,0,0.71,0,1.05,0s0.68,0.02,1.02-0.02v-0.52l-2.07-0.01c0-0.3,0-0.55,0-0.8s-0.01-0.53,0.01-0.82L-1588.68-145.09z"></path> <path id="Path_138" class="st0" d="M-1569.42-144.62c0.19-0.32,0.38-0.64,0.59-0.98h-0.65l-1.31,2.13l-1.32-2.12h-0.63 c0.04,0.08,0.07,0.14,0.1,0.19c0.49,0.79,0.97,1.59,1.47,2.38c0.09,0.14,0.14,0.3,0.14,0.46c-0.01,0.63,0,1.25,0,1.88v0.35h0.53 v-0.36c0-0.6,0.01-1.2,0-1.8c-0.01-0.2,0.05-0.4,0.15-0.58C-1570.04-143.59-1569.73-144.1-1569.42-144.62z"></path> <path id="Path_139" class="st0" d="M-1575.98-140.35h0.56v-2.35c0-0.4,0-0.79,0-1.19s0-0.78,0.01-1.2h1.15 c0.01-0.1,0.01-0.18,0.01-0.25s-0.01-0.17-0.02-0.25h-2.89v0.53h1.15v2.86c0,0.31-0.01,0.61,0,0.92 C-1576.03-140.97-1576.02-140.66-1575.98-140.35z"></path> <path id="Path_140" class="st0" d="M-1598.7-145.59c-0.06,1.14-0.04,4.95,0.04,5.25c0.84,0.06,1.69,0.05,2.53-0.04v-0.48h-2.03 v-4.73H-1598.7z"></path> <path id="Path_141" class="st0" d="M-1566.29-145.6h-0.5c-0.06,0.71-0.04,4.98,0.03,5.26h2.52v-0.5c-0.68-0.03-1.34,0.01-2.03-0.03 v-1.59c0-0.52,0-1.05,0-1.57S-1566.25-145.07-1566.29-145.6z"></path> <path id="Path_142" class="st0" d="M-1594.16-140.35h0.48v-5.25h-0.5C-1594.24-144.97-1594.22-140.64-1594.16-140.35z"></path> <path id="Path_143" class="st0" d="M-1552.79-144.65c0.01,0.75,0.62,1.35,1.36,1.35c0.72,0.01,1.31-0.56,1.32-1.28 c0-0.02,0-0.03,0-0.05c0.02-0.73-0.57-1.34-1.3-1.36C-1552.16-145.99-1552.77-145.4-1552.79-144.65z M-1550.32-144.63 c-0.01,0.62-0.51,1.12-1.14,1.11c-0.62-0.01-1.12-0.51-1.11-1.14c0.01-0.63,0.52-1.13,1.14-1.12c0,0,0.01,0,0.01,0 C-1550.81-145.74-1550.33-145.24-1550.32-144.63L-1550.32-144.63z"></path> <path id="Path_144" class="st0" d="M-1552.01-143.86l0.3-0.04v-0.61c0.2-0.05,0.4-0.02,0.57,0.08c0.07,0.18-0.02,0.42,0.17,0.58 l0.22-0.03c-0.14-0.26,0.05-0.57-0.21-0.77c0.15-0.13,0.2-0.34,0.14-0.52c-0.32-0.31-0.79-0.39-1.2-0.21c0,0.25,0,0.5,0,0.76 S-1552.04-144.13-1552.01-143.86z M-1551.69-145.15h0.56v0.36h-0.56C-1551.75-144.91-1551.75-145.04-1551.69-145.15 L-1551.69-145.15z"></path> <rect id="Rectangle_34" x="-1635.8" y="-129.19" class="st0" width="112" height="0.71"></rect> <path id="Path_145" class="st0" d="M-1631.2-118.17h2.15v6.01h1.46v-6.01h2.14v-1.22h-5.74V-118.17z"></path> <path id="Path_146" class="st0" d="M-1620.19-116.54h-2.86v-2.85h-1.46v7.23h1.46v-3.16h2.86v3.16h1.46v-7.23h-1.46V-116.54z"></path> <path id="Path_147" class="st0" d="M-1615.77-115.35h3.63v-1.22h-3.63v-1.6h3.9v-1.23h-5.36v7.23h5.5v-1.22h-4.04L-1615.77-115.35z "></path> <path id="Path_148" class="st0" d="M-1606.22-118.17h3.5v-1.22h-4.96v7.23h1.46v-3.07h3.02v-1.22h-3.02L-1606.22-118.17z"></path> <path id="Path_149" class="st0" d="M-1599.99-119.4l-2.82,7.23h1.55l0.6-1.64h2.89l0.63,1.64h1.59l-2.89-7.23H-1599.99z M-1600.21-115.03l0.98-2.68l1,2.68H-1600.21z"></path> <path id="Path_150" class="st0" d="M-1590.09-116.01c0.62-0.28,1.02-0.89,1.02-1.57c0-0.3-0.07-0.59-0.22-0.85 c-0.14-0.24-0.33-0.44-0.56-0.6c-0.23-0.15-0.48-0.26-0.75-0.3c-0.42-0.06-0.85-0.08-1.28-0.07h-2.89v7.23h2.46 c0.93-0.01,1.52-0.02,1.76-0.05c0.35-0.03,0.69-0.15,0.98-0.34c0.27-0.19,0.48-0.45,0.63-0.74c0.15-0.3,0.23-0.63,0.23-0.96 c0.01-0.39-0.12-0.78-0.35-1.09C-1589.33-115.67-1589.69-115.91-1590.09-116.01z M-1593.32-118.19h0.84c0.69,0,1.1,0.01,1.25,0.02 c0.21,0.01,0.4,0.1,0.55,0.25c0.13,0.15,0.19,0.35,0.19,0.55c0.01,0.21-0.07,0.41-0.21,0.57c-0.16,0.15-0.37,0.24-0.59,0.26 c-0.14,0.02-0.49,0.02-1.06,0.02h-0.96V-118.19z M-1590.43-113.72c-0.14,0.15-0.33,0.26-0.53,0.29c-0.33,0.04-0.67,0.05-1,0.04 h-1.35v-1.93h1.18c0.43-0.02,0.87,0.01,1.29,0.1c0.18,0.06,0.34,0.17,0.46,0.33c0.11,0.16,0.16,0.36,0.16,0.55 C-1590.22-114.11-1590.29-113.89-1590.43-113.72L-1590.43-113.72z"></path> <path id="Path_151" class="st0" d="M-1583.19-115.4c0.01,0.41-0.01,0.82-0.06,1.23c-0.04,0.25-0.18,0.47-0.38,0.62 c-0.27,0.19-0.6,0.28-0.94,0.25c-0.34,0.02-0.68-0.08-0.96-0.27c-0.23-0.17-0.39-0.43-0.45-0.71c-0.05-0.4-0.07-0.81-0.05-1.21 v-3.91h-1.46v3.86c-0.02,0.61,0.03,1.23,0.14,1.83c0.07,0.29,0.21,0.57,0.41,0.8c0.23,0.27,0.52,0.48,0.84,0.62 c0.5,0.18,1.04,0.27,1.57,0.24c0.47,0.02,0.95-0.06,1.39-0.22c0.33-0.13,0.62-0.33,0.85-0.59c0.22-0.26,0.37-0.57,0.44-0.91 c0.1-0.61,0.14-1.22,0.12-1.84v-3.8h-1.46V-115.4z"></path> <path id="Path_152" class="st0" d="M-1578.7-119.34h-1.46v7.17h5.09v-1.22h-3.63V-119.34z"></path> <path id="Path_153" class="st0" d="M-1570.83-119.52c-0.53-0.01-1.06,0.09-1.56,0.29c-0.35,0.15-0.67,0.37-0.93,0.65 c-0.28,0.29-0.51,0.62-0.67,0.99c-0.24,0.59-0.35,1.22-0.33,1.85c-0.06,0.99,0.29,1.97,0.95,2.71c1.45,1.32,3.66,1.32,5.11,0 c1.27-1.61,1.27-3.89-0.01-5.49C-1568.94-119.2-1569.87-119.57-1570.83-119.52z M-1569.38-113.92c-0.73,0.79-1.96,0.84-2.76,0.11 c-0.04-0.04-0.08-0.08-0.12-0.12c-0.75-1.13-0.76-2.59-0.02-3.73c0.77-0.8,2.05-0.83,2.85-0.05c0.02,0.02,0.03,0.03,0.05,0.05 c0.4,0.53,0.6,1.19,0.55,1.85C-1568.77-115.13-1568.97-114.46-1569.38-113.92L-1569.38-113.92z"></path> <path id="Path_154" class="st0" d="M-1561.88-115.4c0.01,0.41-0.01,0.82-0.06,1.23c-0.04,0.25-0.18,0.47-0.38,0.62 c-0.27,0.19-0.6,0.28-0.94,0.25c-0.34,0.02-0.68-0.08-0.96-0.27c-0.23-0.17-0.39-0.43-0.45-0.71c-0.05-0.4-0.07-0.81-0.05-1.21 v-3.91h-1.46v3.86c-0.02,0.61,0.03,1.23,0.14,1.83c0.07,0.29,0.21,0.57,0.41,0.8c0.23,0.27,0.52,0.48,0.84,0.62 c0.5,0.18,1.04,0.27,1.57,0.24c0.47,0.02,0.95-0.06,1.39-0.22c0.33-0.13,0.62-0.33,0.85-0.59c0.22-0.26,0.37-0.57,0.44-0.91 c0.1-0.61,0.14-1.22,0.12-1.84v-3.8h-1.46V-115.4z"></path> <path id="Path_155" class="st0" d="M-1554.46-116.16c-0.5-0.23-1.03-0.41-1.58-0.52c-0.47-0.08-0.93-0.24-1.34-0.48 c-0.14-0.1-0.22-0.27-0.22-0.44c0-0.18,0.08-0.35,0.23-0.45c0.3-0.19,0.65-0.28,1-0.26c0.33-0.02,0.65,0.06,0.93,0.24 c0.23,0.21,0.37,0.49,0.4,0.8l1.46-0.06c0-0.61-0.26-1.19-0.72-1.59c-0.59-0.44-1.32-0.65-2.05-0.6c-0.49-0.01-0.97,0.07-1.42,0.25 c-0.37,0.15-0.68,0.4-0.9,0.73c-0.53,0.8-0.37,1.86,0.35,2.49c0.49,0.36,1.05,0.61,1.65,0.72c0.61,0.15,1,0.26,1.17,0.32 c0.2,0.06,0.38,0.16,0.52,0.31c0.1,0.12,0.15,0.28,0.15,0.44c0,0.28-0.14,0.53-0.36,0.7c-0.31,0.22-0.68,0.33-1.06,0.3 c-0.38,0.02-0.76-0.1-1.06-0.33c-0.29-0.28-0.47-0.65-0.52-1.05l-1.42,0.14c0.04,0.71,0.36,1.37,0.88,1.85 c0.6,0.46,1.35,0.68,2.1,0.63c0.54,0.02,1.07-0.07,1.57-0.26c0.4-0.16,0.74-0.44,0.98-0.81c0.23-0.35,0.35-0.75,0.34-1.16 c0.01-0.4-0.09-0.8-0.29-1.15C-1553.85-115.74-1554.13-115.99-1554.46-116.16z"></path> <path id="Path_156" class="st0" d="M-1549.3-119.34v7.17h5.09v-1.22h-3.63v-5.95L-1549.3-119.34z"></path> <rect id="Rectangle_35" x="-1543.21" y="-119.4" class="st0" width="1.46" height="7.23"></rect> <path id="Path_157" class="st0" d="M-1536.67-113.57c-0.31,0.22-0.68,0.33-1.06,0.3c-0.38,0.02-0.76-0.1-1.06-0.33 c-0.29-0.28-0.47-0.65-0.52-1.05l-1.42,0.14c0.04,0.71,0.36,1.37,0.88,1.85c0.6,0.46,1.35,0.68,2.1,0.63 c0.54,0.02,1.07-0.07,1.57-0.26c0.4-0.16,0.74-0.44,0.98-0.81c0.44-0.7,0.46-1.59,0.06-2.32c-0.19-0.31-0.47-0.57-0.8-0.73 c-0.5-0.23-1.03-0.41-1.58-0.52c-0.47-0.08-0.93-0.24-1.34-0.48c-0.14-0.1-0.22-0.27-0.22-0.44c0-0.18,0.08-0.35,0.23-0.45 c0.3-0.19,0.65-0.28,1-0.26c0.33-0.02,0.65,0.06,0.93,0.24c0.23,0.21,0.37,0.49,0.4,0.8l1.46-0.06c0-0.61-0.26-1.19-0.72-1.59 c-0.59-0.44-1.32-0.65-2.05-0.6c-0.49-0.01-0.97,0.07-1.42,0.25c-0.37,0.15-0.68,0.4-0.9,0.73c-0.53,0.8-0.37,1.87,0.35,2.49 c0.49,0.36,1.05,0.61,1.65,0.72c0.61,0.15,1,0.26,1.17,0.32c0.2,0.06,0.38,0.16,0.52,0.31c0.1,0.12,0.15,0.28,0.15,0.44 C-1536.32-113.99-1536.45-113.73-1536.67-113.57z"></path> <path id="Path_158" class="st0" d="M-1534.15-118.17h2.15v6.01h1.46v-6.01h2.14v-1.22h-5.74V-118.17z"></path> <path id="Path_159" class="st0" d="M-1544.46-103.63c0.12-0.13,0.39-0.37,0.81-0.72c0.38-0.31,0.74-0.65,1.08-1.01 c0.19-0.21,0.35-0.44,0.47-0.7c0.09-0.21,0.14-0.44,0.14-0.67c0.01-0.43-0.17-0.84-0.48-1.13c-0.36-0.32-0.82-0.48-1.3-0.46 c-0.47-0.02-0.93,0.13-1.3,0.42c-0.34,0.32-0.54,0.76-0.56,1.23l0.72,0.08c-0.02-0.31,0.1-0.62,0.31-0.84 c0.22-0.21,0.51-0.31,0.81-0.3c0.29-0.01,0.57,0.09,0.78,0.29c0.19,0.18,0.3,0.43,0.3,0.7c-0.02,0.31-0.13,0.61-0.33,0.85 c-0.37,0.45-0.8,0.86-1.26,1.21c-0.33,0.26-0.64,0.55-0.92,0.87c-0.2,0.22-0.35,0.48-0.46,0.76c-0.06,0.16-0.09,0.32-0.08,0.49 h3.78v-0.67h-2.8C-1544.66-103.39-1544.57-103.52-1544.46-103.63z"></path> <path id="Path_160" class="st0" d="M-1537.95-107.6c-0.14-0.22-0.34-0.41-0.57-0.53c-0.25-0.13-0.53-0.19-0.81-0.19 c-0.37-0.01-0.74,0.11-1.04,0.34c-0.29,0.25-0.51,0.58-0.62,0.95c-0.15,0.53-0.23,1.08-0.21,1.63c-0.07,0.82,0.13,1.63,0.57,2.33 c0.31,0.39,0.8,0.62,1.3,0.59c0.38,0.01,0.74-0.1,1.04-0.34c0.29-0.25,0.51-0.59,0.62-0.96c0.15-0.53,0.22-1.08,0.21-1.62 c0.01-0.45-0.03-0.91-0.13-1.35C-1537.66-107.05-1537.78-107.34-1537.95-107.6z M-1538.52-103.53c-0.26,0.45-0.84,0.6-1.29,0.34 c-0.14-0.08-0.26-0.2-0.34-0.34c-0.45-1.23-0.44-2.58,0.03-3.8c0.17-0.26,0.46-0.42,0.77-0.41c0.34,0,0.65,0.18,0.82,0.46 C-1538.08-106.07-1538.08-104.74-1538.52-103.53L-1538.52-103.53z"></path> <path id="Path_161" class="st0" d="M-1535.18-107.56c-0.31,0.27-0.66,0.5-1.03,0.67v0.68c0.26-0.1,0.5-0.22,0.74-0.36 c0.24-0.14,0.46-0.3,0.67-0.48v4.48h0.7v-5.74h-0.45C-1534.72-108.03-1534.93-107.77-1535.18-107.56z"></path> <path id="Path_162" class="st0" d="M-1529.49-108.02c-0.3-0.2-0.66-0.3-1.02-0.3c-0.48-0.01-0.95,0.18-1.29,0.53 c-0.35,0.38-0.54,0.88-0.51,1.4c-0.02,0.5,0.15,0.99,0.49,1.36c0.31,0.33,0.74,0.52,1.2,0.52c0.28,0,0.55-0.07,0.79-0.21 c0.23-0.13,0.43-0.32,0.57-0.54c0,0.06,0,0.11,0,0.14c0,0.29-0.04,0.58-0.11,0.86c-0.05,0.24-0.14,0.46-0.26,0.67 c-0.1,0.16-0.24,0.3-0.4,0.4c-0.17,0.1-0.37,0.15-0.57,0.15c-0.23,0.01-0.45-0.07-0.62-0.21c-0.18-0.19-0.3-0.43-0.33-0.69 l-0.68,0.06c0.05,0.83,0.76,1.47,1.6,1.42c0,0,0.01,0,0.01,0c0.39,0.01,0.78-0.11,1.1-0.34c0.33-0.25,0.58-0.6,0.71-0.99 c0.18-0.56,0.26-1.15,0.24-1.75c0.03-0.55-0.06-1.09-0.24-1.61C-1528.94-107.51-1529.18-107.81-1529.49-108.02z M-1529.64-105.48 c-0.2,0.22-0.5,0.35-0.8,0.34c-0.31,0.01-0.6-0.12-0.81-0.34c-0.22-0.24-0.34-0.56-0.33-0.89c-0.02-0.36,0.11-0.72,0.35-0.99 c0.2-0.24,0.5-0.38,0.81-0.38c0.3,0,0.58,0.13,0.77,0.36c0.23,0.27,0.34,0.61,0.32,0.96 C-1529.3-106.08-1529.42-105.74-1529.64-105.48L-1529.64-105.48z"></path> </g> </svg> 